<svg xmlns="http://www.w3.org/2000/svg" xmlns:xlink="http://www.w3.org/1999/xlink" width="1920" height="815" viewBox="0 0 1920 815"><defs><linearGradient id="linear-gradient" x1="1213.68" y1="318.37" x2="1213.68" y2="813.37" gradientUnits="userSpaceOnUse"><stop offset="0" stop-color="#8021ff" stop-opacity="0.33"/><stop offset="1" stop-color="#fff" stop-opacity="0"/></linearGradient><linearGradient id="linear-gradient-2" x1="1249.71" y1="316.83" x2="1583.73" y2="810.6" xlink:href="#linear-gradient"/><linearGradient id="linear-gradient-3" x1="1556.47" y1="79.69" x2="1556.47" y2="812.57" xlink:href="#linear-gradient"/><linearGradient id="linear-gradient-4" x1="1714.55" y1="79.82" x2="1942.29" y2="403.32" xlink:href="#linear-gradient"/><linearGradient id="linear-gradient-5" x1="892.23" y1="726.5" x2="1432.28" y2="726.5" xlink:href="#linear-gradient"/><linearGradient id="linear-gradient-6" x1="552" y1="789.15" x2="892.03" y2="789.15" xlink:href="#linear-gradient"/><linearGradient id="linear-gradient-7" x1="1708.18" y1="554.09" x2="1678.04" y2="815.3" xlink:href="#linear-gradient"/><linearGradient id="linear-gradient-8" x1="1690.18" y1="568.82" x2="1690.18" y2="814.1" xlink:href="#linear-gradient"/><linearGradient id="linear-gradient-9" x1="1710.84" y1="589.68" x2="1667.87" y2="879.35" xlink:href="#linear-gradient"/><linearGradient id="linear-gradient-10" x1="1597.12" y1="664.82" x2="1597.12" y2="822.18" xlink:href="#linear-gradient"/><linearGradient id="linear-gradient-11" x1="1597.59" y1="672.08" x2="1597.59" y2="817.86" xlink:href="#linear-gradient"/><linearGradient id="linear-gradient-12" x1="1765.76" y1="720.62" x2="1751.78" y2="821.26" xlink:href="#linear-gradient"/><linearGradient id="linear-gradient-13" x1="1703.29" y1="610.02" x2="1692.13" y2="690.39" xlink:href="#linear-gradient"/><linearGradient id="linear-gradient-14" x1="1608.14" y1="668.11" x2="1599.79" y2="728.21" gradientTransform="translate(-138.84 508.58) rotate(-16.51)" xlink:href="#linear-gradient"/><linearGradient id="linear-gradient-15" x1="1075.46" y1="97.46" x2="1080.48" y2="265.74" xlink:href="#linear-gradient"/><linearGradient id="linear-gradient-16" x1="1355" y1="117.9" x2="1355" y2="191.15" xlink:href="#linear-gradient"/><linearGradient id="linear-gradient-17" x1="1420.95" y1="102.27" x2="1420.95" y2="131.88" xlink:href="#linear-gradient"/><linearGradient id="linear-gradient-18" x1="951.95" y1="43.27" x2="951.95" y2="72.88" gradientTransform="matrix(-1, 0, 0, 1, 1903.91, 0)" xlink:href="#linear-gradient"/></defs><g id="Layer_2" data-name="Layer 2"><rect width="1920" height="815" fill="none"/><path d="M1245,320l290.31,495H892Z" fill="url(#linear-gradient)"/><path d="M1245,320l393.06,495H1535.33Z" fill="url(#linear-gradient-2)"/><path d="M1295.17,405.51l78,133H1262.8v14.78h119l99.68,170H1403.8v13.54h85.66L1535.33,815H892l38.21-53.59h232V746.64H940.78l29-40.64h44.14v-7.39H975l30.73-43.1h156.5V634.57H1020.69l130.85-183.49H1262.8v-2.46H1153.3L1184,405.51Z" fill="#fff" opacity="0.03"/><polygon points="1920 415.96 1920 815 1192.94 815 1250.07 735.11 1265.83 713.08 1309.15 652.49 1317.03 641.47 1362.98 577.21 1385.3 545.99 1580.92 272.42 1583.54 268.75 1629.49 204.49 1720.66 77 1795.64 204.49 1818.11 242.7 1912.24 402.78 1912.25 402.78 1920 415.96" fill="url(#linear-gradient-3)"/><polygon points="1920 327.36 1920 415.96 1912.25 402.78 1912.24 402.78 1818.11 242.7 1795.64 204.49 1720.66 77 1920 327.36" fill="url(#linear-gradient-4)"/><polygon points="1920 424.82 1920 815 1192.94 815 1250.07 735.11 1596.94 735.11 1596.94 713.08 1265.83 713.08 1309.15 652.49 1375.15 652.49 1375.15 641.47 1317.03 641.47 1362.98 577.21 1596.94 577.21 1596.94 545.99 1385.3 545.99 1580.92 272.42 1747.24 272.42 1747.24 268.75 1583.54 268.75 1629.49 204.49 1795.64 204.49 1818.11 242.7 1912.25 402.78 1747.24 402.78 1747.24 424.82 1920 424.82" fill="#fff" opacity="0.03"/><path d="M898.17,815h534.11c-69.14-4.93-228.2-17.45-226.66-28.21,2-13.75-98.42-96.23-123.19-138.85s-15,64.62-23.46,79.74-10.43,38.49-40.41,23.37-50.19,9.62-50.19,9.62l-69.09,20.62S884.18,807.27,898.17,815Z" fill="url(#linear-gradient-5)"/><path d="M892,815c-11.11-15-37.95-47.14-60.26-42-15.41,3.56-3.93,22.48-17.94,25.43a164.45,164.45,0,0,1-29.25,2.94s-98.05-3.53-97.31-6.45-37.11-20.45-46.45-29.51-5.65,13.73-8.84,16.94-3.93,8.19-15.24,5-18.92,2-18.92,2l-26.05,4.38S559,805.82,552,815Z" fill="url(#linear-gradient-6)"/><path d="M1751.37,654.18c-.65,10.62-14.38,33.27-14.38,33.27l-5,20s-19.65,87.26-19.63,95.68c0,4.8,1.47,8.18,3.12,11.88H1628.7a14.81,14.81,0,0,1,1-2.24c.45-.81.91-1.57,1.36-2.28,4.2-6.5,8.73-9.45,10.74-16.76,2.23-8.12,6.1-97.48,6.1-97.48l.45-20.59s-7.32-25.45-5.16-35.87.75-17.11,4.75-24.23,10.7-14.25,15.32-20.14,7.31-26.18,15.35-32,14.38-10.33,27.2-9l1.21.14c2.46.35,1.62.2,2.51.37s.06,0,2.52.3l1.2.18c12.72,2.08,17.66,8.09,23.9,15.8s3.53,28,6.44,34.9,7.49,15.53,9.5,23.45S1752,643.56,1751.37,654.18Z" fill="url(#linear-gradient-7)"/><path d="M1742.66,659.33c-.68,10-12.67,31.36-12.67,31.36l-4.47,18.8s-17.79,82-17.86,89.93c-.06,6.33,2.35,10,4.24,15.58h-76.4c-.25-1.3,0-3.12,1.31-5.63,4-7.73,8.57-10.35,10.57-18,0-.14.07-.28.09-.42.07-.31.14-.69.2-1.14,0-.11,0-.23,0-.35s.07-.5.11-.78.08-.59.11-.89.07-.61.11-.94l.06-.51c0-.33.07-.67.11-1s0-.45.06-.63,0-.45.07-.76c2.16-22.37,5.33-84,5.33-84l.62-19.32s-6-23.78-4-33.58.83-16,4.34-22.76,9.32-13.49,13.32-19.06,6.55-24.63,13.5-30.17,12.41-9.84,23.37-8.74l1,.12c2.09.31,1.38.17,2.14.32s0,0,2.15.25l1,.16c8.48,1.4,12.88,5.12,16.89,10.08h0l1,1.33c.79,1,1.56,2.08,2.33,3.13,5.25,7.17,2.71,26.22,5.12,32.65s6.24,14.48,7.87,21.88S1743.33,649.36,1742.66,659.33Z" fill="url(#linear-gradient-8)"/><path d="M1742.66,659.33c-.68,10-12.67,31.36-12.67,31.36l-4.47,18.8s-17.79,82-17.86,89.93c-.06,6.33,2.35,10,4.24,15.58h-76.4c-.25-1.3,0-3.12,1.31-5.63,4-7.73,8.57-10.35,10.57-18,0-.14.07-.28.09-.42.07-.38.14-.76.2-1.14,0-.11,0-.23,0-.35s.08-.52.11-.78.08-.59.11-.89.08-.63.11-.94l.06-.51c.09-.88.13-1.27.17-1.64s0-.45.07-.76c12.91-2.42,25.83-4.78,38.77-7l21.75-134.38,18-66.78c.42.46.82.94,1.21,1.42h0l1,1.33c.79,1,1.56,2.08,2.33,3.13,5.25,7.17,2.71,26.22,5.12,32.65s6.24,14.48,7.87,21.88S1743.33,649.36,1742.66,659.33Z" fill="url(#linear-gradient-9)"/><path d="M1631.09,810.48c.06,1.59.12,3.1.19,4.52h-49.06c-3.31-19.29-9.08-48.86-9.08-48.86l-3-13.54s-8.79-15.49-9-22.64-2.2-11.31-.7-16.59,4.75-11,6.84-15.59.66-18.27,5-23.33,7.78-9,16.38-10.17l.81-.1c1.66-.15,1.09-.13,1.7-.15s0,0,1.69-.2l.81-.07c8.65-.65,12.83,2.51,18.12,6.57s6.72,17.76,9.71,21.81,7.34,9,9.9,13.83,1.48,9.34,2.73,16.38-4.16,24-4.16,24l-.1,13.86S1630.34,790.94,1631.09,810.48Z" fill="url(#linear-gradient-10)"/><path d="M1626,762.59s.79,35,1.71,52.41h-41.76c-3-18-8.43-47.36-8.43-47.36l-2.64-12.73s-7.66-14.61-7.92-21.32-2-10.63-.75-15.58,4-10.28,5.71-14.56.41-17.13,4.08-21.85,6.57-8.39,13.91-9.4l.69-.08c1.42-.13.94-.11,1.46-.13s0,0,1.44-.17l.7-.06a16.45,16.45,0,0,1,11.61,3.19l.45.33c.4.28.78.57,1.16.87,0,0,0,0,0,0,.25.19.49.39.74.6.52.42,1,.86,1.55,1.29,4.56,3.86,5.9,16.73,8.49,20.55s6.36,8.49,8.59,13.07,1.35,8.77,2.48,15.39-3.35,22.5-3.35,22.5Z" fill="url(#linear-gradient-11)"/><polygon points="1796.06 758.83 1792.06 768.65 1764.12 757.27 1740.62 815 1730.09 815 1755.09 753.6 1727.16 742.23 1731.16 732.41 1759.09 743.78 1768.02 721.85 1777.05 725.52 1768.12 747.46 1796.06 758.83" fill="url(#linear-gradient-12)"/><polygon points="1725.88 640.29 1727.03 632.34 1704.4 629.07 1706.96 611.3 1699.65 610.25 1697.08 628.01 1674.45 624.75 1673.3 632.7 1695.93 635.97 1688.52 687.26 1695.84 688.32 1703.25 637.02 1725.88 640.29" fill="url(#linear-gradient-13)"/><polygon points="1615.48 709.17 1614.61 703.22 1597.7 705.68 1595.76 692.4 1590.29 693.2 1592.23 706.48 1575.31 708.95 1576.18 714.89 1593.09 712.43 1598.68 750.77 1604.15 749.98 1598.56 711.63 1615.48 709.17" fill="url(#linear-gradient-14)"/><circle cx="1078" cy="182.5" r="83" fill="url(#linear-gradient-15)"/><ellipse cx="1081.57" cy="111.69" rx="6.3" ry="10.44" transform="translate(715.61 1135.58) rotate(-76.23)" fill="#fff" opacity="0.03"/><ellipse cx="1034.99" cy="143.26" rx="8.75" ry="6.18" transform="translate(20.08 391.61) rotate(-21.63)" fill="#fff" opacity="0.03"/><ellipse cx="1117.2" cy="139.29" rx="10.3" ry="18.3" transform="translate(437.97 1037.16) rotate(-60)" fill="#fff" opacity="0.03"/><ellipse cx="1047.04" cy="223.16" rx="14.31" ry="20.63" transform="translate(205.35 884.71) rotate(-50.2)" fill="#fff" opacity="0.03"/><ellipse cx="1077.67" cy="170.91" rx="22.26" ry="14.5" transform="translate(-5.69 40.83) rotate(-2.16)" fill="#fff" opacity="0.03"/><ellipse cx="1120.44" cy="207.84" rx="19.8" ry="12.9" transform="translate(136.39 782.49) rotate(-40.79)" fill="#fff" opacity="0.03"/><ellipse cx="1097.52" cy="237.29" rx="12.15" ry="7.92" transform="translate(-11.56 412.74) rotate(-21.19)" fill="#fff" opacity="0.03"/><ellipse cx="1126.48" cy="171.57" rx="10.27" ry="10.81" transform="matrix(1, -0.04, 0.04, 1, -5.68, 42.67)" fill="#fff" opacity="0.03"/><ellipse cx="1016.7" cy="181.11" rx="10.27" ry="13.25" transform="translate(-6.12 38.53) rotate(-2.16)" fill="#fff" opacity="0.03"/><path d="M1420.5,151.5h-34.18a19.94,19.94,0,0,0-23.78-11.23A30,30,0,0,0,1303,145.5a30.45,30.45,0,0,0,.6,6h-14.1A20.56,20.56,0,0,0,1269,172h0a20.56,20.56,0,0,0,20.5,20.5h131A20.56,20.56,0,0,0,1441,172h0A20.56,20.56,0,0,0,1420.5,151.5Z" fill="url(#linear-gradient-16)"/><path d="M1444.91,119.21a8.06,8.06,0,0,0-8.05-8,8.35,8.35,0,0,0-2.2.31,12.08,12.08,0,0,0-24,2.11,11.94,11.94,0,0,0,.24,2.41h-5.68a8.28,8.28,0,0,0-8.25,8.26h0a8.27,8.27,0,0,0,8.25,8.25h30.2a8.27,8.27,0,0,0,8.25-8.25h0a6.28,6.28,0,0,0,0-.75A8,8,0,0,0,1444.91,119.21Z" fill="url(#linear-gradient-17)"/><path d="M928,60.21a8.05,8.05,0,0,1,8-8.05,8.35,8.35,0,0,1,2.2.31,12.08,12.08,0,0,1,24,2.11A11.94,11.94,0,0,1,962,57h5.68a8.28,8.28,0,0,1,8.25,8.26h0a8.27,8.27,0,0,1-8.25,8.25h-30.2a8.27,8.27,0,0,1-8.25-8.25h0a6.28,6.28,0,0,1,0-.75A8,8,0,0,1,928,60.21Z" fill="url(#linear-gradient-18)"/></g></svg>