<svg width="24" height="24" viewBox="0 0 24 24" fill="none" xmlns="http://www.w3.org/2000/svg">
<g clip-path="url(#clip0_286_998)">
<mask id="mask0_286_998" style="mask-type:luminance" maskUnits="userSpaceOnUse" x="0" y="0" width="24" height="24">
<path d="M24 0H0V24H24V0Z" fill="white"/>
</mask>
<g mask="url(#mask0_286_998)">
<path d="M19.993 7.0293C19.993 7.0293 21.5038 7.12829 22.4239 7.6439C23.2216 8.09016 23.9982 9.11819 23.9982 9.11819C23.9982 9.11819 22.8585 9.47711 22.5038 9.89425C22.1782 10.2786 22.111 10.4527 22.111 10.4527C22.111 10.4527 21.2682 8.74657 19.75 8.1198L19.993 7.0293Z" fill="white"/>
<path d="M17 20.1106C17 20.1106 17.7485 20.7665 18.4161 20.9576C18.9947 21.1207 19.8337 21.0042 19.8337 21.0042C19.8337 21.0042 19.4706 20.3075 19.4997 19.9486C19.5267 19.6183 19.5764 19.5061 19.5764 19.5061C18.9396 19.4182 18.3168 19.2481 17.7237 19L17 20.1106Z" fill="white"/>
<path d="M4.21248 14.2547C4.21248 14.2547 3.0738 15.2531 2.05847 15.5401C1.17866 15.7878 -0.0976562 15.6105 -0.0976562 15.6105C-0.0976562 15.6105 0.455006 14.5501 0.412127 14.0049C0.370837 13.503 0.295137 13.3321 0.295137 13.3321C0.295137 13.3321 2.09764 13.9429 3.61429 13.3125L4.21248 14.2547Z" fill="white"/>
<path d="M8.55953 3.78131C8.55953 3.78131 7.71571 3.16301 7.37056 2.52088C7.07147 1.96504 7 1.07729 7 1.07729C7 1.07729 7.79776 1.28904 8.15932 1.17946C8.49177 1.07623 8.59552 1 8.59552 1C8.59552 1 8.45365 2.30702 9.10478 3.23553L8.55953 3.78131Z" fill="white"/>
<path fill-rule="evenodd" clip-rule="evenodd" d="M7.12583 11C7.12583 11 6.63266 12.1856 7.59902 12.6587C8.56538 13.1319 10.9926 12.8928 10.9926 12.8928C10.9926 12.8928 8.88836 11.3417 7.12454 11H7.12583Z" fill="#03F5AE"/>
<path fill-rule="evenodd" clip-rule="evenodd" d="M16.9822 12.0941C16.9822 12.0941 17.1559 12.999 16.4076 13.1905C15.6593 13.382 13.9883 12.8602 13.9883 12.8602C13.9883 12.8602 15.6936 12.0757 16.9822 12.0941Z" fill="#03F5AE"/>
<path d="M12 21C16.9706 21 21 16.9706 21 12C21 7.02944 16.9706 3 12 3C7.02944 3 3 7.02944 3 12C3 16.9706 7.02944 21 12 21Z" stroke="white" stroke-width="2"/>
</g>
</g>
<defs>
<clipPath id="clip0_286_998">
<rect width="24" height="24" fill="white"/>
</clipPath>
</defs>
</svg>
