<svg width="33" height="41" viewBox="0 0 33 41" fill="none" xmlns="http://www.w3.org/2000/svg">
<g clip-path="url(#clip0_24_145)">
<path d="M12.7325 2.17695C12.6135 1.96763 12.4564 1.79703 12.2744 1.67934C12.0924 1.56164 11.8906 1.50024 11.6859 1.50024C11.4812 1.50024 11.2795 1.56164 11.0974 1.67934C10.9154 1.79703 10.7583 1.96763 10.6393 2.17695C8.2342 6.55495 2.50584 17.47 2.50584 22.257C2.50584 28.317 6.61594 33.231 11.6855 33.231C16.7551 33.231 20.866 28.317 20.866 22.257C20.866 17.47 15.14 6.55495 12.7325 2.17695Z" fill="#03D1CF" fill-opacity="0.99"/>
<path d="M21.913 7.946C21.794 7.73667 21.6369 7.56608 21.4549 7.44838C21.2728 7.33069 21.0711 7.26929 20.8664 7.26929C20.6617 7.26929 20.4599 7.33069 20.2779 7.44838C20.0959 7.56608 19.9388 7.73667 19.8198 7.946C17.4147 12.324 11.6863 23.239 11.6863 28.026C11.6863 34.086 15.7964 39 20.866 39C25.9356 39 30.0465 34.086 30.0465 28.026C30.0465 23.239 24.3205 12.324 21.913 7.946Z" fill="#303FD0"/>
<path d="M11.6855 28.026C11.6855 24.374 15.0191 17.153 17.6693 11.991C19.4196 15.891 20.8652 19.849 20.8652 22.257C20.8173 25.0108 19.9628 27.6457 18.4655 29.6569C16.9681 31.6681 14.933 32.9144 12.75 33.157C12.052 31.5892 11.6854 29.8226 11.6855 28.026Z" fill="#50D0FE"/>
<g clip-path="url(#clip1_24_145)">
<path d="M13.7263 -2.54706C13.618 -2.69878 13.475 -2.82245 13.3092 -2.90777C13.1434 -2.99309 12.9597 -3.0376 12.7733 -3.0376C12.5869 -3.0376 12.4031 -2.99309 12.2374 -2.90777C12.0716 -2.82245 11.9286 -2.69878 11.8203 -2.54706C9.62828 0.624938 4.41528 8.53094 4.41528 11.9989C4.47108 14.1609 5.3826 16.2123 6.94968 17.7027C8.51676 19.1931 10.6113 20.0006 12.7733 19.9479C14.9353 20.0006 17.0298 19.1931 18.5969 17.7027C20.164 16.2123 21.0755 14.1609 21.1313 11.9989C21.1313 8.53094 15.9153 0.624938 13.7263 -2.54706Z" fill="#4E09F8"/>
<path d="M14.3633 7.99004C14.3622 7.82327 14.2955 7.66364 14.1776 7.54572C14.0597 7.4278 13.9001 7.36109 13.7333 7.36004H13.1483V2.32004C13.1472 2.15327 13.0805 1.99364 12.9626 1.87572C12.8447 1.7578 12.685 1.69109 12.5183 1.69004H10.7183C10.6081 1.69181 10.5007 1.72516 10.4089 1.78613C10.3171 1.84711 10.2447 1.93315 10.2003 2.03404L9.57029 3.20404C9.52157 3.3012 9.49865 3.40926 9.50373 3.51783C9.50881 3.6264 9.54171 3.73185 9.59929 3.82404C9.65537 3.91471 9.73345 3.98976 9.82627 4.0422C9.9191 4.09465 10.0237 4.1228 10.1303 4.12404H10.7173V7.36304H10.1323C9.96552 7.36409 9.80589 7.4308 9.68797 7.54872C9.57005 7.66664 9.50334 7.82627 9.50229 7.99304V9.16204C9.50334 9.3288 9.57005 9.48843 9.68797 9.60635C9.80589 9.72428 9.96552 9.79099 10.1323 9.79204H13.7323C13.899 9.79099 14.0587 9.72428 14.1766 9.60635C14.2945 9.48843 14.3612 9.3288 14.3623 9.16204L14.3633 7.99004ZM26.5123 -2.03896C26.5214 -2.54556 26.385 -3.04413 26.1191 -3.47542C25.8532 -3.90672 25.469 -4.2526 25.0123 -4.47196C23.3287 -5.23233 21.4995 -5.61626 19.6523 -5.59696C16.9213 -5.47168 14.2192 -4.98305 11.6173 -4.14396C9.22425 -3.36489 6.73871 -2.90558 4.22529 -2.77796C3.04855 -2.7683 1.87846 -2.9552 0.763287 -3.33096C0.494647 -3.4252 0.211975 -3.47321 -0.0727134 -3.47296C-0.76364 -3.46112 -1.42165 -3.17566 -1.90234 -2.67922C-2.38303 -2.18278 -2.64714 -1.51591 -2.63671 -0.824964V13.516C-2.64587 14.0226 -2.50939 14.5212 -2.24349 14.9525C-1.97759 15.3838 -1.59344 15.7297 -1.13671 15.949C0.546869 16.7094 2.37606 17.0933 4.22329 17.074C6.95591 16.9495 9.65973 16.4612 12.2633 15.622C14.6563 14.843 17.1419 14.3836 19.6553 14.256C20.8326 14.2458 22.0034 14.4324 23.1193 14.808C23.3879 14.9023 23.6706 14.9503 23.9553 14.95C24.6465 14.9366 25.3042 14.6497 25.7842 14.1523C26.2643 13.6548 26.5275 12.9873 26.5163 12.296L26.5123 -2.03896Z" fill="#03D1CF" fill-opacity="0.99"/>
<path d="M20.2143 15.513C20.2132 15.3462 20.1465 15.1866 20.0286 15.0687C19.9107 14.9507 19.751 14.884 19.5843 14.883H18.9993V9.84299C18.9982 9.67622 18.9315 9.51659 18.8136 9.39867C18.6957 9.28075 18.536 9.21404 18.3693 9.21299H16.5693C16.4591 9.21476 16.3517 9.24811 16.2599 9.30908C16.1681 9.37006 16.0957 9.4561 16.0513 9.55699L15.4213 10.727C15.3726 10.8241 15.3496 10.9322 15.3547 11.0408C15.3598 11.1494 15.3927 11.2548 15.4503 11.347C15.5064 11.4377 15.5844 11.5127 15.6773 11.5652C15.7701 11.6176 15.8747 11.6457 15.9813 11.647H16.5683V14.886H15.9833C15.8165 14.887 15.6569 14.9537 15.539 15.0717C15.421 15.1896 15.3543 15.3492 15.3533 15.516V16.685C15.3543 16.8517 15.421 17.0114 15.539 17.1293C15.6569 17.2472 15.8165 17.3139 15.9833 17.315H19.5833C19.75 17.3139 19.9097 17.2472 20.0276 17.1293C20.1455 17.0114 20.2122 16.8517 20.2133 16.685L20.2143 15.513ZM32.3633 5.48399C32.3724 4.97739 32.236 4.47882 31.9701 4.04753C31.7042 3.61623 31.32 3.27035 30.8633 3.05099C29.1797 2.29062 27.3505 1.90669 25.5033 1.92599C22.7723 2.05127 20.0702 2.5399 17.4683 3.37899C15.0752 4.15806 12.5897 4.61737 10.0763 4.74499C8.89955 4.75465 7.72946 4.56775 6.61428 4.19199C6.34564 4.09775 6.06297 4.04974 5.77828 4.04999C5.08736 4.06183 4.42935 4.34729 3.94866 4.84373C3.46796 5.34017 3.20385 6.00704 3.21428 6.69799V21.039C3.20512 21.5456 3.34161 22.0442 3.60751 22.4754C3.87341 22.9067 4.25756 23.2526 4.71428 23.472C6.39787 24.2324 8.22706 24.6163 10.0743 24.597C12.8069 24.4725 15.5107 23.9842 18.1143 23.145C20.5073 22.3659 22.9929 21.9066 25.5063 21.779C26.6836 21.7688 27.8544 21.9553 28.9703 22.331C29.2389 22.4252 29.5216 22.4732 29.8063 22.473C30.4975 22.4596 31.1552 22.1727 31.6352 21.6752C32.1153 21.1777 32.3785 20.5102 32.3673 19.819L32.3633 5.48399Z" fill="#303FD0"/>
<g style="mix-blend-mode:screen">
<path d="M3.21328 17.04V6.69805C3.20284 6.00751 3.46651 5.34099 3.94653 4.84448C4.42655 4.34796 5.08379 4.06194 5.77428 4.04905C6.05904 4.04901 6.34173 4.09736 6.61028 4.19205C7.72579 4.56775 8.89625 4.75432 10.0733 4.74405C12.5867 4.61641 15.0722 4.1571 17.4653 3.37805C20.0676 2.53906 22.77 2.05043 25.5013 1.92505C25.8426 1.92505 26.1799 1.93672 26.5133 1.96005V12.296C26.5248 12.9876 26.2615 13.6555 25.7812 14.1533C25.3009 14.651 24.6428 14.9379 23.9513 14.951C23.6669 14.9511 23.3846 14.9031 23.1163 14.809C22.0001 14.4334 20.829 14.2468 19.6513 14.257C17.1374 14.3849 14.6515 14.8449 12.2583 15.625C9.65632 16.4638 6.95422 16.9521 4.22328 17.077C3.88328 17.075 3.54661 17.0627 3.21328 17.04Z" fill="#03D1CF" fill-opacity="0.99"/>
</g>
</g>
</g>
<defs>
<clipPath id="clip0_24_145">
<rect width="31.8242" height="40" fill="white" transform="translate(0.363281 0.5)"/>
</clipPath>
<clipPath id="clip1_24_145">
<rect width="40" height="40" fill="white" transform="translate(-5.63672 -10.5)"/>
</clipPath>
</defs>
</svg>
