<svg width="36" height="36" viewBox="0 0 36 36" fill="none" xmlns="http://www.w3.org/2000/svg">
<path d="M9.66667 3C8.66667 3 8 3.6 8 4.5V6H6.33333C4.5 6 3 7.35 3 9V10.5V13.5V28.5V30C3 31.8 4.33333 33 6.33333 33H8H28H29.6667C31.6667 33 33 31.8 33 30V28.5V13.5V10.5V9C33 7.35 31.5 6 29.6667 6H28V4.5C28 3.6 27.3333 3 26.3333 3C25.3333 3 24.6667 3.6 24.6667 4.5V6H11.3333V4.5C11.3333 3.6 10.6667 3 9.66667 3ZM6 10.5H30V28.5C30 29.4 29 30 28 30H8C7 30 6 29.4 6 28.5V10.5Z" fill="white"/>
<path d="M18.9 12V14.5591H17.1V12H18.9ZM18.9 26.1664V28.5H17.1V26.1664H18.9ZM19.8765 23.321C19.8765 22.9913 19.8128 22.7108 19.6852 22.4795C19.5638 22.2482 19.3634 22.0428 19.084 21.8636C18.8107 21.6843 18.4403 21.5108 17.9727 21.3431C17.1832 21.0539 16.4879 20.7474 15.8866 20.4235C15.2915 20.0938 14.8269 19.6861 14.4929 19.2003C14.1589 18.7087 13.9919 18.087 13.9919 17.3352C13.9919 16.618 14.1711 15.9963 14.5294 15.47C14.8877 14.9437 15.3826 14.5389 16.0142 14.2555C16.6518 13.9664 17.3927 13.8218 18.2368 13.8218C18.8806 13.8218 19.4636 13.9143 19.9858 14.0994C20.5081 14.2787 20.9575 14.5447 21.334 14.8975C21.7105 15.2445 21.999 15.6696 22.1994 16.1727C22.3998 16.6759 22.5 17.2513 22.5 17.8991H19.8856C19.8856 17.5521 19.8462 17.2455 19.7672 16.9795C19.6883 16.7135 19.5729 16.4908 19.4211 16.3115C19.2753 16.1322 19.0992 15.9992 18.8927 15.9125C18.6862 15.8199 18.4585 15.7737 18.2095 15.7737C17.8391 15.7737 17.5354 15.8431 17.2986 15.9819C17.0617 16.1207 16.8887 16.3086 16.7794 16.5457C16.6761 16.7771 16.6245 17.0431 16.6245 17.3438C16.6245 17.6388 16.6791 17.8962 16.7885 18.1159C16.9038 18.3357 17.1012 18.5381 17.3806 18.7232C17.6599 18.9025 18.0425 19.0875 18.5283 19.2784C19.3178 19.5676 20.0101 19.8799 20.6053 20.2153C21.2004 20.5507 21.665 20.9614 21.999 21.4472C22.333 21.933 22.5 22.5518 22.5 23.3036C22.5 24.0497 22.3178 24.6859 21.9534 25.2121C21.5891 25.7326 21.0789 26.1317 20.4231 26.4093C19.7672 26.6811 19.0081 26.817 18.1457 26.817C17.587 26.817 17.0314 26.7476 16.4787 26.6088C15.9261 26.4642 15.4251 26.2329 14.9757 25.9148C14.5263 25.5967 14.168 25.1746 13.9008 24.6483C13.6336 24.1162 13.5 23.4627 13.5 22.6877H16.1235C16.1235 23.1099 16.1812 23.4627 16.2966 23.7461C16.4119 24.0237 16.5638 24.2463 16.752 24.414C16.9464 24.576 17.165 24.6916 17.4079 24.761C17.6508 24.8304 17.8968 24.8651 18.1457 24.8651C18.5344 24.8651 18.8532 24.7986 19.1022 24.6656C19.3573 24.5326 19.5486 24.3504 19.6761 24.1191C19.8097 23.882 19.8765 23.6159 19.8765 23.321Z" fill="#03F5AE"/>
</svg>
