<svg width="36" height="36" viewBox="0 0 36 36" fill="none" xmlns="http://www.w3.org/2000/svg">
<g clip-path="url(#clip0_224_54)">
<mask id="mask0_224_54" style="mask-type:luminance" maskUnits="userSpaceOnUse" x="0" y="0" width="36" height="36">
<path d="M36 0H0V36H36V0Z" fill="white"/>
</mask>
<g mask="url(#mask0_224_54)">
<path d="M27.3452 6V10.0326H25.2926V6H27.3452ZM27.0952 28.3228V32H25.0426V28.3228H27.0952ZM28.5426 23.8391C28.5426 23.3197 28.4505 22.8777 28.2662 22.5131C28.0908 22.1486 27.8013 21.8251 27.3978 21.5426C27.0031 21.2601 26.468 20.9867 25.7926 20.7224C24.6522 20.2667 23.6478 19.7837 22.7794 19.2734C21.9198 18.7539 21.2487 18.1115 20.7662 17.346C20.2838 16.5713 20.0426 15.5917 20.0426 14.4069C20.0426 13.2769 20.3013 12.2972 20.8189 11.4679C21.3364 10.6386 22.0513 10.0007 22.9636 9.55415C23.8847 9.09849 24.9548 8.87066 26.1741 8.87066C27.104 8.87066 27.9461 9.01647 28.7005 9.3081C29.4548 9.59061 30.104 10.0098 30.6478 10.5657C31.1917 11.1125 31.6083 11.7823 31.8978 12.5752C32.1873 13.368 32.332 14.2748 32.332 15.2955H28.5557C28.5557 14.7487 28.4987 14.2657 28.3847 13.8465C28.2706 13.4273 28.104 13.0764 27.8847 12.7939C27.6741 12.5114 27.4198 12.3018 27.1215 12.1651C26.8233 12.0193 26.4943 11.9464 26.1347 11.9464C25.5996 11.9464 25.161 12.0557 24.8189 12.2744C24.4768 12.4932 24.2268 12.7893 24.0689 13.163C23.9198 13.5275 23.8452 13.9467 23.8452 14.4206C23.8452 14.8854 23.9241 15.2909 24.082 15.6372C24.2487 15.9835 24.5338 16.3025 24.9373 16.5941C25.3408 16.8766 25.8934 17.1682 26.5952 17.469C27.7355 17.9246 28.7355 18.4168 29.5952 18.9453C30.4548 19.4739 31.1259 20.1209 31.6083 20.8864C32.0908 21.6519 32.332 22.6271 32.332 23.8118C32.332 24.9874 32.0689 25.9898 31.5426 26.8191C31.0162 27.6393 30.2794 28.2681 29.332 28.7056C28.3847 29.1339 27.2882 29.3481 26.0426 29.3481C25.2355 29.3481 24.4329 29.2387 23.6347 29.02C22.8364 28.7921 22.1127 28.4276 21.4636 27.9264C20.8145 27.4252 20.2969 26.7599 19.911 25.9306C19.525 25.0922 19.332 24.0624 19.332 22.8412H23.1215C23.1215 23.5065 23.2048 24.0624 23.3715 24.5089C23.5382 24.9464 23.7575 25.2972 24.0294 25.5615C24.3101 25.8167 24.6259 25.9989 24.9768 26.1083C25.3276 26.2177 25.6829 26.2723 26.0426 26.2723C26.604 26.2723 27.0645 26.1675 27.4241 25.9579C27.7926 25.7483 28.0689 25.4613 28.2531 25.0967C28.4461 24.7231 28.5426 24.3039 28.5426 23.8391Z" fill="#03F5AE"/>
<path fill-rule="evenodd" clip-rule="evenodd" d="M4.82839 6L3.29688 7.53151L10.5435 14.7781L8.55233 16.7693L16.081 18.7866L14.0637 11.2579L12.075 13.2466L4.82839 6Z" fill="white"/>
<path fill-rule="evenodd" clip-rule="evenodd" d="M4.92531 17.1948L3.19336 18.9267L10.4408 26.1742L8.55074 28.0643L16.0794 30.0816L14.0621 22.5529L12.1728 24.4422L4.92531 17.1948Z" fill="white"/>
</g>
</g>
<defs>
<clipPath id="clip0_224_54">
<rect width="36" height="36" fill="white"/>
</clipPath>
</defs>
</svg>
