<svg width="13" height="12" viewBox="0 0 13 12" fill="none" xmlns="http://www.w3.org/2000/svg">
<path d="M0 1.15765L0 11.5482C0 11.7981 0.219465 12 0.491111 12L11.7867 12C12.0583 12 12.2778 11.7981 12.2778 11.5482L12.2778 6.46588C12.2778 6.40376 12.2225 6.35294 12.155 6.35294H11.2956C11.228 6.35294 11.1728 6.40376 11.1728 6.46588L11.1728 10.9835L1.105 10.9835L1.105 1.72235L6.01611 1.72235C6.08364 1.72235 6.13889 1.67153 6.13889 1.60941V0.818823C6.13889 0.756705 6.08364 0.705883 6.01611 0.705883L0.491111 0.705883C0.219465 0.705883 0 0.907764 0 1.15765ZM9.7611 2.27435L7.79206 0.606631C7.77575 0.591702 7.75521 0.581285 7.73278 0.576562C7.71036 0.571837 7.68694 0.572997 7.66519 0.57991C7.64345 0.586823 7.62425 0.599211 7.60978 0.615665C7.5953 0.632119 7.58614 0.651979 7.58333 0.672986L12.8634 -2.38419e-07C12.8542 0.0720003 12.9202 0.134118 13 0.125646L12.2778 4.71388C12.3791 4.70259 12.422 4.58824 12.3499 4.52188L10.5868 3.03388L7.87294 6.05224C7.92052 6.00847 7.87294 6.05224 7.87294 5.89271L7.22222 5.29412C7.17465 5.25035 7.09638 5.25035 7.0488 5.29412L9.7611 2.27435Z" fill="#00FFC2"/>
</svg>
