<svg width="36" height="36" viewBox="0 0 36 36" fill="none" xmlns="http://www.w3.org/2000/svg">
<path d="M25.4511 12.0001C25.3268 11.9983 25.2035 12.0213 25.0882 12.0676C24.9729 12.1139 24.868 12.1827 24.7795 12.2699C24.6911 12.3572 24.6208 12.4611 24.5729 12.5757C24.5249 12.6903 24.5002 12.8134 24.5002 12.9376C24.5002 13.0618 24.5249 13.1848 24.5729 13.2995C24.6208 13.4141 24.6911 13.518 24.7795 13.6052C24.868 13.6925 24.9729 13.7612 25.0882 13.8076C25.2035 13.8539 25.3268 13.8769 25.4511 13.8751H28.8129L21.7011 20.9869L14.8639 14.1498C14.6881 13.974 14.4497 13.8753 14.2011 13.8753C13.9525 13.8753 13.7141 13.974 13.5382 14.1498L4.78823 22.8998C4.69826 22.9861 4.62643 23.0896 4.57694 23.2041C4.52746 23.3186 4.50132 23.4418 4.50005 23.5665C4.49878 23.6913 4.52241 23.815 4.56956 23.9305C4.6167 24.0459 4.68642 24.1509 4.77461 24.2391C4.86281 24.3273 4.96772 24.397 5.0832 24.4441C5.19868 24.4913 5.3224 24.5149 5.44713 24.5136C5.57185 24.5124 5.69507 24.4862 5.80956 24.4367C5.92406 24.3872 6.02753 24.3154 6.11392 24.2254L14.2011 16.1383L21.0382 22.9754C21.2141 23.1512 21.4525 23.2499 21.7011 23.2499C21.9497 23.2499 22.1881 23.1512 22.3639 22.9754L30.1386 15.2008V18.5626C30.1368 18.6868 30.1598 18.8102 30.2061 18.9254C30.2524 19.0407 30.3212 19.1457 30.4084 19.2341C30.4957 19.3226 30.5996 19.3929 30.7142 19.4408C30.8288 19.4888 30.9518 19.5134 31.0761 19.5134C31.2003 19.5134 31.3233 19.4888 31.4379 19.4408C31.5526 19.3929 31.6565 19.3226 31.7437 19.2341C31.831 19.1457 31.8997 19.0407 31.9461 18.9254C31.9924 18.8102 32.0153 18.6868 32.0136 18.5626V12.9376C32.0135 12.689 31.9148 12.4505 31.739 12.2747C31.5631 12.0989 31.3247 12.0001 31.0761 12.0001H25.4511Z" fill="#03F5AE"/>
</svg>
