<svg width="26" height="38" viewBox="0 0 26 38" fill="none" xmlns="http://www.w3.org/2000/svg">
<path d="M9.95522 0.676952C9.8478 0.467631 9.70606 0.297035 9.54179 0.179338C9.37752 0.0616421 9.19546 0.000244141 9.01073 0.000244141C8.826 0.000244141 8.64394 0.0616421 8.47967 0.179338C8.3154 0.297035 8.17366 0.467631 8.06624 0.676952C5.89583 5.05495 0.726456 15.97 0.726456 20.757C0.726456 26.817 4.43548 31.731 9.01037 31.731C13.5853 31.731 17.295 26.817 17.295 20.757C17.295 15.97 12.1278 5.05495 9.95522 0.676952Z" fill="#03D1CF" fill-opacity="0.99"/>
<path d="M18.2399 6.446C18.1324 6.23667 17.9907 6.06608 17.8264 5.94838C17.6622 5.83069 17.4801 5.76929 17.2954 5.76929C17.1106 5.76929 16.9286 5.83069 16.7643 5.94838C16.6 6.06608 16.4583 6.23667 16.3509 6.446C14.1805 10.824 9.01109 21.739 9.01109 26.526C9.01109 32.586 12.7201 37.5 17.295 37.5C21.8699 37.5 25.5796 32.586 25.5796 26.526C25.5796 21.739 20.4124 10.824 18.2399 6.446Z" fill="#303FD0"/>
<path d="M9.01038 26.526C9.01038 22.874 12.0187 15.653 14.4102 10.491C15.9897 14.391 17.2943 18.349 17.2943 20.757C17.2511 23.5108 16.48 26.1457 15.1287 28.1569C13.7774 30.1681 11.941 31.4144 9.97102 31.657C9.34105 30.0892 9.0103 28.3226 9.01038 26.526Z" fill="#50D0FE"/>
</svg>
