<svg width="44" height="44" viewBox="0 0 44 44" fill="none" xmlns="http://www.w3.org/2000/svg">
<mask id="mask0_221_278" style="mask-type:luminance" maskUnits="userSpaceOnUse" x="0" y="0" width="44" height="44">
<path d="M43.2177 0.157227H0.157318V43.2176H43.2177V0.157227Z" fill="white"/>
</mask>
<g mask="url(#mask0_221_278)">
<path d="M21.6875 26.1729V30.6583" stroke="#03F5AE" stroke-width="2" stroke-miterlimit="10" stroke-linecap="round"/>
<path d="M32.4526 14.5107H10.9224C8.94061 14.5107 7.33405 16.1173 7.33405 18.0991V32.4526C7.33405 34.4344 8.94061 36.0409 10.9224 36.0409H32.4526C34.4344 36.0409 36.0409 34.4344 36.0409 32.4526V18.0991C36.0409 16.1173 34.4344 14.5107 32.4526 14.5107Z" stroke="white" stroke-width="2"/>
<path d="M30.0603 15.7067V10.9222C30.0603 8.27978 27.9182 6.1377 25.2758 6.1377H18.0991C15.4568 6.1377 13.3146 8.27978 13.3146 10.9222V15.7067" stroke="white" stroke-width="2"/>
<path d="M21.6875 26.4716C23.6693 26.4716 25.2758 24.8651 25.2758 22.8833C25.2758 20.9015 23.6693 19.2949 21.6875 19.2949C19.7057 19.2949 18.0991 20.9015 18.0991 22.8833C18.0991 24.8651 19.7057 26.4716 21.6875 26.4716Z" fill="#03F5AE"/>
</g>
</svg>
