<svg width="32" height="32" viewBox="0 0 32 32" fill="none" xmlns="http://www.w3.org/2000/svg">
<path d="M17.4049 2.42188C17.2203 2.42188 17.0357 2.53069 16.9761 2.74913L16.6549 3.92622C16.4985 4.49955 16.0661 4.9561 15.5021 5.1441L14.6697 5.42188C14.2643 5.55699 14.2643 6.12965 14.6697 6.26476L15.5021 6.54253C16.0661 6.73053 16.4985 7.18795 16.6549 7.76128L16.9761 8.9375C17.0952 9.37439 17.7146 9.37439 17.8337 8.9375L18.1549 7.76128C18.3114 7.18795 18.7437 6.73053 19.3077 6.54253L20.1402 6.26476C20.5455 6.12965 20.5455 5.55699 20.1402 5.42188L19.3077 5.1441C18.7437 4.9561 18.3114 4.49955 18.1549 3.92622L17.8337 2.74913C17.7742 2.53069 17.5896 2.42188 17.4049 2.42188ZM8.51082 6.13542C7.37271 6.13542 6.23491 6.56845 5.36846 7.4349C3.29068 9.51267 3.75646 12.1085 5.36846 13.7205L7.25388 15.6059L8.12714 16.4792L18.5672 26.9193C19.4064 27.7588 20.5234 28.2214 21.7105 28.2214C22.898 28.2214 24.0137 27.7588 24.8528 26.9193C25.6928 26.0802 26.1549 24.964 26.1549 23.7769C26.1549 22.5898 25.6928 21.4741 24.8528 20.6345L14.2869 10.0677L13.5395 9.32031L11.6541 7.4349C10.7876 6.56845 9.64893 6.13542 8.51082 6.13542ZM24.9605 9.18924C24.7768 9.18924 24.5932 9.29744 24.5325 9.51389L24.0482 11.2431C23.889 11.8111 23.458 12.2639 22.898 12.4505L21.5586 12.8967C21.1532 13.0318 21.1532 13.6053 21.5586 13.7405L22.898 14.1866C23.458 14.3733 23.889 14.8257 24.0482 15.3941L24.5325 17.1233C24.6539 17.5562 25.2671 17.5562 25.3884 17.1233L25.8728 15.3941C26.0319 14.8261 26.463 14.3733 27.023 14.1866L28.3624 13.7405C28.7677 13.6053 28.7677 13.0318 28.3624 12.8967L27.023 12.4505C26.463 12.2639 26.0319 11.8111 25.8728 11.2431L25.3884 9.51389C25.3278 9.29744 25.1441 9.18924 24.9605 9.18924ZM8.51082 9.68924C8.73838 9.68918 8.96639 9.7761 9.14016 9.94965L11.0256 11.8342L9.76777 13.092L7.88235 11.2066C7.58946 10.9133 7.47924 10.3528 7.88235 9.94965C8.05568 9.77632 8.28327 9.68929 8.51082 9.68924ZM6.29468 18.1814C6.11168 18.1814 5.92893 18.2886 5.86759 18.5035L5.2235 20.7595C5.06039 21.3311 4.62218 21.7831 4.05596 21.9644L2.11759 22.5842C1.70559 22.7162 1.70559 23.2994 2.11759 23.4314L4.05596 24.0512C4.62218 24.2325 5.06039 24.6845 5.2235 25.2561L5.86759 27.5122C5.99026 27.9419 6.59996 27.9419 6.72263 27.5122L7.37107 25.2431C7.5324 24.6786 7.96088 24.23 8.51777 24.0443L10.3633 23.4297C10.7686 23.2946 10.7686 22.721 10.3633 22.5859L8.51777 21.9714C7.96088 21.786 7.53195 21.337 7.37107 20.7726L6.72263 18.5035C6.6613 18.2886 6.47768 18.1814 6.29468 18.1814Z" fill="#080715"/>
</svg>
