<svg width="27" height="29" viewBox="0 0 27 29" fill="none" xmlns="http://www.w3.org/2000/svg">
<path opacity="0.4" d="M21.8424 9.63114C24.3546 9.63114 26.3913 7.59452 26.3913 5.08223C26.3913 2.56993 24.3546 0.533325 21.8424 0.533325C19.33 0.533325 17.2935 2.56993 17.2935 5.08223C17.2935 7.59452 19.33 9.63114 21.8424 9.63114Z" fill="white"/>
<path d="M4.81453 9.63114C7.32682 9.63114 9.36344 7.59452 9.36344 5.08223C9.36344 2.56993 7.32682 0.533325 4.81453 0.533325C2.30224 0.533325 0.265625 2.56993 0.265625 5.08223C0.265625 7.59452 2.30224 9.63114 4.81453 9.63114Z" fill="white"/>
<path d="M21.8424 28.5334C24.3546 28.5334 26.3913 26.4968 26.3913 23.9845C26.3913 21.4723 24.3546 19.4355 21.8424 19.4355C19.33 19.4355 17.2935 21.4723 17.2935 23.9845C17.2935 26.4968 19.33 28.5334 21.8424 28.5334Z" fill="white"/>
<path opacity="0.4" d="M4.81453 28.5334C7.32682 28.5334 9.36344 26.4968 9.36344 23.9845C9.36344 21.4723 7.32682 19.4355 4.81453 19.4355C2.30224 19.4355 0.265625 21.4723 0.265625 23.9845C0.265625 26.4968 2.30224 28.5334 4.81453 28.5334Z" fill="white"/>
</svg>
