<svg width="36" height="36" viewBox="0 0 36 36" fill="none" xmlns="http://www.w3.org/2000/svg">
<g clip-path="url(#clip0_252_731)">
<mask id="mask0_252_731" style="mask-type:luminance" maskUnits="userSpaceOnUse" x="0" y="0" width="36" height="36">
<path d="M36 0H0V36H36V0Z" fill="white"/>
</mask>
<g mask="url(#mask0_252_731)">
<path d="M33.3965 24.4401L30.3027 19.2838C30.2575 19.2065 30.1927 19.1425 30.1148 19.0981C30.037 19.0538 29.9489 19.0307 29.8593 19.0312H29.8026C30.2845 18.5614 30.6252 17.966 30.786 17.3125C30.9469 16.659 30.9215 15.9736 30.7127 15.3338C30.5039 14.694 30.12 14.1255 29.6047 13.6926C29.0893 13.2598 28.463 12.98 27.7968 12.8849V11.9001L28.1629 11.9568C28.3469 11.9876 28.5332 12.0031 28.7198 12.0032C29.45 12.0008 30.1626 11.7787 30.765 11.3658C31.3673 10.9529 31.8315 10.3683 32.0971 9.68806L32.4426 8.78056C32.4708 8.70902 32.4827 8.63206 32.4773 8.55534C32.472 8.47861 32.4495 8.40405 32.4116 8.33712C32.3719 8.27153 32.3188 8.21509 32.2557 8.17154C32.1926 8.12799 32.1209 8.09831 32.0455 8.08447L31.0813 7.93493C30.3171 7.81675 29.5351 7.94743 28.8508 8.30767C28.1666 8.66791 27.6163 9.23863 27.2812 9.93556C26.9461 9.23863 26.3958 8.66791 25.7115 8.30767C25.0272 7.94743 24.2452 7.81675 23.481 7.93493L22.5168 8.08447C22.4414 8.09831 22.3698 8.12799 22.3066 8.17154C22.2435 8.21509 22.1904 8.27153 22.1507 8.33712C22.1128 8.40405 22.0903 8.47861 22.085 8.55534C22.0796 8.63206 22.0915 8.70902 22.1198 8.78056L22.4652 9.68806C22.7309 10.3683 23.195 10.9529 23.7973 11.3658C24.3997 11.7787 25.1123 12.0008 25.8426 12.0032C26.0292 12.0031 26.2154 11.9876 26.3994 11.9568L26.7655 11.9001V12.8849C26.0993 12.98 25.473 13.2598 24.9576 13.6926C24.4423 14.1255 24.0584 14.694 23.8497 15.3338C23.6409 15.9736 23.6155 16.659 23.7763 17.3125C23.9372 17.966 24.2778 18.5614 24.7598 19.0312H11.2401C11.722 18.5614 12.0627 17.966 12.2235 17.3125C12.3844 16.659 12.359 15.9736 12.1502 15.3338C11.9414 14.694 11.5575 14.1255 11.0422 13.6926C10.5268 13.2598 9.90053 12.98 9.23428 12.8849V11.9001L9.60038 11.9568C9.78441 11.9876 9.97067 12.0031 10.1573 12.0032C10.8875 12.0008 11.6001 11.7787 12.2025 11.3658C12.8048 10.9529 13.269 10.3683 13.5346 9.68806L13.8801 8.78056C13.9083 8.70902 13.9202 8.63206 13.9148 8.55534C13.9095 8.47861 13.887 8.40405 13.8491 8.33712C13.8094 8.27153 13.7563 8.21509 13.6932 8.17154C13.6301 8.12799 13.5584 8.09831 13.483 8.08447L12.5188 7.93493C11.7546 7.81675 10.9726 7.94743 10.2883 8.30767C9.60407 8.66791 9.05376 9.23863 8.71866 9.93556C8.38356 9.23863 7.83325 8.66791 7.14898 8.30767C6.4647 7.94743 5.68273 7.81675 4.9185 7.93493L3.95429 8.08447C3.87887 8.09831 3.80725 8.12799 3.74415 8.17154C3.68105 8.21509 3.62789 8.27153 3.58819 8.33712C3.55029 8.40405 3.52784 8.47861 3.52248 8.55534C3.51713 8.63206 3.52901 8.70902 3.55725 8.78056L3.90272 9.68806C4.16835 10.3683 4.63251 10.9529 5.23485 11.3658C5.83718 11.7787 6.54981 12.0008 7.28007 12.0032C7.46665 12.0031 7.65291 11.9876 7.83694 11.9568L8.20303 11.9001V12.8849C7.53679 12.98 6.9105 13.2598 6.39513 13.6926C5.87977 14.1255 5.49595 14.694 5.28716 15.3338C5.07837 15.9736 5.05296 16.659 5.21381 17.3125C5.37466 17.966 5.71535 18.5614 6.19725 19.0312H6.14054C6.05095 19.0307 5.96281 19.0538 5.88497 19.0981C5.80714 19.1425 5.74234 19.2065 5.6971 19.2838L2.60335 24.4401C2.55693 24.5184 2.53206 24.6076 2.53127 24.6986C2.53047 24.7896 2.55378 24.8792 2.59882 24.9582C2.64386 25.0373 2.70903 25.1031 2.78771 25.1488C2.86639 25.1946 2.95578 25.2187 3.04679 25.2187H5.62491V32.9531C5.62491 33.0898 5.67923 33.221 5.77593 33.3177C5.87263 33.4144 6.00378 33.4687 6.14054 33.4687H29.8593C29.996 33.4687 30.1272 33.4144 30.2239 33.3177C30.3206 33.221 30.3749 33.0898 30.3749 32.9531V25.2187H32.953C33.044 25.2187 33.1334 25.1946 33.2121 25.1488C33.2908 25.1031 33.356 25.0373 33.401 24.9582C33.446 24.8792 33.4693 24.7896 33.4685 24.6986C33.4678 24.6076 33.4429 24.5184 33.3965 24.4401ZM28.1113 10.5749C28.3258 10.0254 28.7208 9.56522 29.2316 9.27003C29.7423 8.97485 30.3383 8.86224 30.9215 8.95072L31.2515 9.00228L31.1329 9.31681C30.9184 9.86633 30.5233 10.3265 30.0126 10.6217C29.5019 10.9169 28.9059 11.0295 28.3227 10.941L27.9927 10.8895L28.1113 10.5749ZM26.2396 10.941C25.6564 11.0295 25.0604 10.9169 24.5497 10.6217C24.039 10.3265 23.6439 9.86633 23.4294 9.31681L23.3108 9.00228L23.6408 8.95072C24.2241 8.86166 24.8203 8.97402 25.3312 9.26928C25.842 9.56454 26.237 10.0251 26.451 10.5749L26.5696 10.8895L26.2396 10.941ZM9.54882 10.5749C9.76328 10.0254 10.1583 9.56522 10.6691 9.27003C11.1798 8.97485 11.7758 8.86224 12.359 8.95072L12.689 9.00228L12.5704 9.31681C12.3559 9.86633 11.9608 10.3265 11.4501 10.6217C10.9394 10.9169 10.3434 11.0295 9.76022 10.941L9.43022 10.8895L9.54882 10.5749ZM7.6771 10.941C7.09388 11.0295 6.49792 10.9169 5.9872 10.6217C5.47648 10.3265 5.0814 9.86633 4.86694 9.31681L4.74835 9.00228L5.07835 8.95072C5.66156 8.86224 6.25753 8.97485 6.76825 9.27003C7.27897 9.56522 7.67404 10.0254 7.8885 10.5749L8.0071 10.8895L7.6771 10.941ZM5.62491 24.1874H3.95944L5.62491 21.4082V24.1874ZM6.14054 16.4531C6.14054 15.9432 6.29174 15.4447 6.57503 15.0207C6.85832 14.5968 7.26096 14.2663 7.73205 14.0712C8.20315 13.876 8.72152 13.825 9.22163 13.9245C9.72173 14.0239 10.1811 14.2695 10.5417 14.63C10.9022 14.9906 11.1478 15.45 11.2472 15.9501C11.3467 16.4502 11.2957 16.9686 11.1005 17.4397C10.9054 17.9108 10.575 18.3134 10.151 18.5967C9.72702 18.88 9.22856 19.0312 8.71866 19.0312C8.0349 19.0312 7.37914 18.7596 6.89565 18.2761C6.41216 17.7926 6.14054 17.1368 6.14054 16.4531ZM14.9062 32.4374H6.65616V20.0624H14.9062V32.4374ZM24.703 16.4531C24.703 15.9432 24.8542 15.4447 25.1375 15.0207C25.4208 14.5968 25.8235 14.2663 26.2946 14.0712C26.7656 13.876 27.284 13.825 27.7841 13.9245C28.2842 14.0239 28.7436 14.2695 29.1042 14.63C29.4647 14.9906 29.7103 15.45 29.8097 15.9501C29.9092 16.4502 29.8582 16.9686 29.663 17.4397C29.4679 17.9108 29.1375 18.3134 28.7135 18.5967C28.2895 18.88 27.7911 19.0312 27.2812 19.0312C26.5974 19.0312 25.9416 18.7596 25.4581 18.2761C24.9747 17.7926 24.703 17.1368 24.703 16.4531ZM29.3437 32.4374H15.9374V21.4082L18.0721 24.966C18.1173 25.0433 18.1821 25.1074 18.26 25.1518C18.3378 25.1961 18.426 25.2192 18.5155 25.2187H29.3437V32.4374ZM18.8094 24.1874L16.3344 20.0624H29.5654L32.0404 24.1874H18.8094Z" fill="white"/>
<path d="M23.6719 31.4062H27.7969C27.9336 31.4062 28.0648 31.3519 28.1615 31.2552C28.2582 31.1585 28.3125 31.0274 28.3125 30.8906V28.3125C28.3125 28.1757 28.2582 28.0446 28.1615 27.9479C28.0648 27.8512 27.9336 27.7969 27.7969 27.7969H23.6719C23.5351 27.7969 23.404 27.8512 23.3073 27.9479C23.2106 28.0446 23.1562 28.1757 23.1562 28.3125V30.8906C23.1562 31.0274 23.2106 31.1585 23.3073 31.2552C23.404 31.3519 23.5351 31.4062 23.6719 31.4062ZM24.1875 28.8281H27.2812V30.375H24.1875V28.8281Z" fill="#03F5AE"/>
<path d="M17.4844 10.2656V10.7812C17.0741 10.7812 16.6807 10.9442 16.3906 11.2343C16.1005 11.5244 15.9375 11.9179 15.9375 12.3281C15.9375 12.7384 16.1005 13.1318 16.3906 13.4219C16.6807 13.712 17.0741 13.875 17.4844 13.875H18.5156C18.6524 13.875 18.7835 13.9293 18.8802 14.026C18.9769 14.1227 19.0312 14.2539 19.0312 14.3906C19.0312 14.5274 18.9769 14.6585 18.8802 14.7552C18.7835 14.8519 18.6524 14.9062 18.5156 14.9062H17.4844C17.3476 14.9062 17.2165 14.8519 17.1198 14.7552C17.0231 14.6585 16.9688 14.5274 16.9688 14.3906H15.9375C15.9375 14.8009 16.1005 15.1943 16.3906 15.4844C16.6807 15.7745 17.0741 15.9375 17.4844 15.9375V16.4531H18.5156V15.9375C18.9259 15.9375 19.3193 15.7745 19.6094 15.4844C19.8995 15.1943 20.0625 14.8009 20.0625 14.3906C20.0625 13.9804 19.8995 13.5869 19.6094 13.2968C19.3193 13.0067 18.9259 12.8438 18.5156 12.8438H17.4844C17.3476 12.8438 17.2165 12.7894 17.1198 12.6927C17.0231 12.596 16.9688 12.4649 16.9688 12.3281C16.9688 12.1914 17.0231 12.0602 17.1198 11.9635C17.2165 11.8668 17.3476 11.8125 17.4844 11.8125H18.5156C18.6524 11.8125 18.7835 11.8668 18.8802 11.9635C18.9769 12.0602 19.0312 12.1914 19.0312 12.3281H20.0625C20.0625 11.9179 19.8995 11.5244 19.6094 11.2343C19.3193 10.9442 18.9259 10.7812 18.5156 10.7812V10.2656H17.4844Z" fill="#03F5AE"/>
<path d="M18.8799 6.80056C19.064 6.83136 19.2502 6.84688 19.4368 6.84697C20.1671 6.84452 20.8797 6.62242 21.482 6.20952C22.0844 5.79662 22.5485 5.21205 22.8141 4.53181L23.1596 3.62431C23.1879 3.55277 23.1997 3.47581 23.1944 3.39909C23.189 3.32236 23.1666 3.2478 23.1287 3.18087C23.089 3.11528 23.0358 3.05884 22.9727 3.01529C22.9096 2.97174 22.838 2.94206 22.7626 2.92822L21.7984 2.77868C21.0341 2.6605 20.2522 2.79118 19.5679 3.15142C18.8836 3.51166 18.3333 4.08238 17.9982 4.77931C17.6631 4.08238 17.1128 3.51166 16.4285 3.15142C15.7442 2.79118 14.9623 2.6605 14.1981 2.77868L13.2338 2.92822C13.1584 2.94206 13.0868 2.97174 13.0237 3.01529C12.9606 3.05884 12.9074 3.11528 12.8677 3.18087C12.8298 3.2478 12.8074 3.32236 12.802 3.39909C12.7967 3.47581 12.8086 3.55277 12.8368 3.62431L13.1823 4.53181C13.4479 5.21205 13.9121 5.79662 14.5144 6.20952C15.1167 6.62242 15.8294 6.84452 16.5596 6.84697C16.7462 6.84688 16.9325 6.83136 17.1165 6.80056L17.4826 6.74384V8.22884C16.1664 8.36112 14.9514 8.99421 14.0888 9.99716C13.2263 11.0001 12.7822 12.2962 12.8484 13.6174C12.9146 14.9386 13.4861 16.1837 14.4446 17.0954C15.4031 18.0071 16.6754 18.5155 17.9982 18.5155C19.321 18.5155 20.5933 18.0071 21.5518 17.0954C22.5103 16.1837 23.0818 14.9386 23.148 13.6174C23.2142 12.2962 22.7701 11.0001 21.9076 9.99716C21.0451 8.99421 19.83 8.36112 18.5138 8.22884V6.74384L18.8799 6.80056ZM18.8284 5.41868C19.0428 4.86916 19.4379 4.40897 19.9486 4.11378C20.4593 3.8186 21.0553 3.70598 21.6385 3.79447L21.9685 3.84603L21.8499 4.16056C21.6345 4.7094 21.2393 5.16892 20.7288 5.46396C20.2183 5.759 19.6229 5.87211 19.0398 5.78478L18.7098 5.73322L18.8284 5.41868ZM16.9566 5.78478C16.3734 5.87326 15.7775 5.76065 15.2667 5.46546C14.756 5.17027 14.361 4.71008 14.1465 4.16056L14.0279 3.84603L14.3579 3.79447C14.9411 3.70598 15.5371 3.8186 16.0478 4.11378C16.5585 4.40897 16.9536 4.86916 17.1681 5.41868L17.2866 5.73322L16.9566 5.78478ZM22.1232 13.3593C22.1232 14.1752 21.8813 14.9727 21.428 15.651C20.9748 16.3294 20.3305 16.8581 19.5768 17.1703C18.823 17.4825 17.9936 17.5642 17.1935 17.405C16.3933 17.2459 15.6583 16.853 15.0814 16.2761C14.5045 15.6992 14.1116 14.9642 13.9525 14.1641C13.7933 13.3639 13.875 12.5345 14.1872 11.7807C14.4994 11.027 15.0281 10.3828 15.7065 9.9295C16.3848 9.47624 17.1824 9.23431 17.9982 9.23431C19.0918 9.23581 20.1401 9.67089 20.9134 10.4442C21.6866 11.2174 22.1217 12.2658 22.1232 13.3593Z" fill="white"/>
<path d="M8.71875 16.9688V18C9.12901 18 9.52246 17.837 9.81256 17.5469C10.1027 17.2568 10.2656 16.8634 10.2656 16.4531H9.23438C9.23438 16.5899 9.18005 16.721 9.08335 16.8177C8.98665 16.9144 8.8555 16.9688 8.71875 16.9688Z" fill="#03F5AE"/>
<path d="M27.2812 16.9688V18C27.6915 18 28.085 17.837 28.3751 17.5469C28.6652 17.2568 28.8281 16.8634 28.8281 16.4531H27.7969C27.7969 16.5899 27.7426 16.721 27.6459 16.8177C27.5492 16.9144 27.418 16.9688 27.2812 16.9688Z" fill="#03F5AE"/>
</g>
</g>
<defs>
<clipPath id="clip0_252_731">
<rect width="36" height="36" fill="white"/>
</clipPath>
</defs>
</svg>
