<svg width="24" height="24" viewBox="0 0 24 24" fill="none" xmlns="http://www.w3.org/2000/svg">
<g clip-path="url(#clip0_286_983)">
<mask id="mask0_286_983" style="mask-type:luminance" maskUnits="userSpaceOnUse" x="0" y="0" width="24" height="24">
<path d="M24 0H0V24H24V0Z" fill="white"/>
</mask>
<g mask="url(#mask0_286_983)">
<mask id="mask1_286_983" style="mask-type:luminance" maskUnits="userSpaceOnUse" x="0" y="2" width="22" height="22">
<path d="M20 13C20 14.78 19.4722 16.5201 18.4832 18.0001C17.4943 19.4802 16.0887 20.6337 14.4442 21.3149C12.7996 21.9961 10.99 22.1743 9.24419 21.8271C7.49836 21.4798 5.89471 20.6226 4.63604 19.364C3.37737 18.1053 2.5202 16.5016 2.17293 14.7558C1.82567 13.01 2.0039 11.2004 2.68508 9.55585C3.36627 7.91131 4.51983 6.50571 5.99987 5.51677C7.47991 4.52784 9.21997 4 11 4V13H20Z" stroke="white" stroke-width="4"/>
</mask>
<g mask="url(#mask1_286_983)">
<path d="M20 13C20 14.78 19.4722 16.5201 18.4832 18.0001C17.4943 19.4802 16.0887 20.6337 14.4442 21.3149C12.7996 21.9961 10.99 22.1743 9.24419 21.8271C7.49836 21.4798 5.89471 20.6226 4.63604 19.364C3.37737 18.1053 2.5202 16.5016 2.17293 14.7558C1.82567 13.01 2.0039 11.2004 2.68508 9.55585C3.36627 7.91131 4.51983 6.50571 5.99987 5.51677C7.47991 4.52784 9.21997 4 11 4V13H20Z" stroke="white" stroke-width="4"/>
</g>
<mask id="mask2_286_983" style="mask-type:luminance" maskUnits="userSpaceOnUse" x="11" y="0" width="13" height="13">
<path d="M13 2C14.1819 2 15.3522 2.23279 16.4442 2.68508C17.5361 3.13738 18.5282 3.80031 19.364 4.63604C20.1997 5.47177 20.8626 6.46392 21.3149 7.55585C21.7672 8.64778 22 9.8181 22 11H13V2Z" stroke="#03F5AE" stroke-width="4"/>
</mask>
<g mask="url(#mask2_286_983)">
<path d="M13 2C14.1819 2 15.3522 2.23279 16.4442 2.68508C17.5361 3.13738 18.5282 3.80031 19.364 4.63604C20.1997 5.47177 20.8626 6.46392 21.3149 7.55585C21.7672 8.64778 22 9.8181 22 11H13V2Z" stroke="#03F5AE" stroke-width="4"/>
</g>
</g>
</g>
<defs>
<clipPath id="clip0_286_983">
<rect width="24" height="24" fill="white"/>
</clipPath>
</defs>
</svg>
