<svg version="1.2" xmlns="http://www.w3.org/2000/svg" viewBox="0 0 16 17" width="16" height="17">
	<title>shib-logo-svg</title>
	<style>
		.s0 { fill: #f4a817 } 
		.s1 { fill: #f00500 } 
		.s2 { fill: #fffefe } 
		.s3 { fill: #f28f1f } 
		.s4 { fill: #f28b20 } 
		.s5 { fill: #1f1712 } 
		.s6 { fill: #1f1713 } 
		.s7 { fill: #f2991d } 
		.s8 { fill: #f6d9a7 } 
		.s9 { fill: #1d1919 } 
		.s10 { fill: #171413 } 
		.s11 { fill: #f7ddb0 } 
	</style>
	<path id="Layer" fill-rule="evenodd" class="s0" d="m11.7 1.5q0.3-0.3 0.6-0.5 0.5-0.5 1.1-0.7 0.4-0.2 0.8-0.3 0.1 0 0.1 0.1 0.2 0.2 0.3 0.5 0.1 0.6 0.1 1.3 0 0.5-0.1 1-0.1 0.3-0.2 0.7 0 0.2 0 0.3 0 0.1 0 0.1-0.1 0.5-0.3 1-0.1 0.6-0.3 1.2-0.1 0.2 0 0.3c0.1 0.3 0.3 0.5 0.4 0.8q0.1 0.3 0.2 0.7 0.2 0.5 0.3 1 0 0.3 0 0.7 0.1 0.3 0.1 0.5c0 0.1 0 0.2 0 0.3q-0.2-0.1-0.3-0.1-0.5 0-1 0-0.6 0.1-1.1 0.3-0.7 0.3-1.2 0.8-0.2 0.1-0.3 0.2-0.1-0.1-0.1-0.3c-0.1-0.3-0.3-0.6-0.4-0.9q-0.1-0.1-0.2-0.2-0.3-0.4-0.8-0.7-0.7-0.4-1.5-0.4-0.4 0-0.8 0.1c-0.5 0.2-1 0.5-1.3 0.9-0.2 0.2-0.2 0.3-0.3 0.5q-0.3 0.3-0.4 0.7-0.1 0.2-0.2 0.3 0 0 0 0c-0.7-0.7-1.4-1.2-2.3-1.3q-0.5-0.1-1.1 0-0.2 0-0.5 0 0-0.2 0.1-0.5 0-0.4 0.1-0.8 0-0.3 0.1-0.6 0.1-0.5 0.3-1c0 0 0-0.1 0-0.1q0-0.1 0-0.1 0 0.1 0.1 0 0.1-0.4 0.4-0.9 0 0 0-0.1-0.2-0.5-0.4-1-0.1-0.3-0.2-0.7 0-0.3-0.1-0.6 0-0.2-0.1-0.4 0-0.4 0-0.7-0.1-0.4-0.1-0.7 0-0.4 0-0.7 0-0.5 0.1-0.9 0.1-0.2 0.2-0.4c0.1-0.2 0.2-0.2 0.3-0.2q0.5 0.1 0.9 0.4 0.6 0.3 1 0.8 0.2 0.2 0.4 0.3 0 0 0 0.1 0.2 0.2 0.5 0.5 0.3 0.3 0.6 0.7 0.1 0.1 0.2 0.1 0.6-0.3 1.2-0.4 0.5-0.1 1-0.1 0.8 0 1.6 0.1 0.6 0.1 1.3 0.4c0.1 0 0.1 0 0.1-0.1q0.3-0.4 0.6-0.8 0.3-0.2 0.5-0.5zm-0.6 5.5q0.1 0 0.3 0c0.1 0 0.2-0.1 0.3-0.2q0.1-0.2 0.1-0.4-0.1-0.4-0.5-0.6-0.3-0.2-0.6-0.1-0.2 0.1-0.3 0.2c-0.2 0.2-0.3 0.3-0.3 0.6q-0.1 0.3 0.2 0.4c0.3 0.1 0.5 0.1 0.8 0.1zm1.2 1q0-0.3-0.1-0.5c0-0.1 0-0.1-0.2-0.1-0.2 0-0.4 0.1-0.6 0.2q-0.5 0.2-0.9 0.5c-0.2 0.1-0.4 0.3-0.6 0.4-0.2 0.2-0.3 0.3-0.3 0.6q-0.1 0.1 0 0.1 0.1 0 0.2 0 0.5 0 0.8-0.1 0.6-0.1 1-0.3 0.3-0.2 0.6-0.4 0-0.1 0-0.2 0-0.1 0.1-0.2zm-8.6-0.1q0 0.1 0 0.3 0 0.1 0.1 0.2c0.3 0.3 0.6 0.4 0.9 0.5q0.3 0.2 0.7 0.2 0.3 0.1 0.7 0.1 0.1 0 0.2 0 0.1 0 0.1-0.1 0-0.1 0-0.2-0.2-0.3-0.5-0.5c-0.5-0.3-1-0.6-1.5-0.9q-0.3-0.1-0.5-0.1-0.1 0-0.2 0.1c0 0.1 0 0.3 0 0.4zm-1.7-6.8c-0.1 0-0.1 0-0.1 0.1-0.2 0.2-0.2 0.6-0.2 0.9q0 0.3 0 0.6 0 0.2 0.1 0.4 0 0.2 0 0.4 0.1 0.3 0.2 0.6 0.1 0.3 0.2 0.7 0.1 0.3 0.1 0.6 0 0 0.1 0 0 0 0 0 0.2-0.3 0.4-0.6 0.3-0.4 0.6-0.7 0.3-0.3 0.6-0.6 0.2-0.2 0.5-0.4 0.1 0 0-0.1-0.1-0.2-0.3-0.4-0.4-0.3-0.8-0.6-0.2-0.2-0.5-0.4-0.3-0.2-0.6-0.4-0.2-0.1-0.3-0.1zm9.8 2.5q0.1 0.1 0.2 0.1 0.2 0.3 0.5 0.6 0.2 0.2 0.4 0.5 0.2 0.3 0.4 0.5c0 0.1 0 0.1 0 0.1 0 0 0.1 0 0.1-0.1q0.1-0.3 0.2-0.7 0.1-0.4 0.2-0.8 0.1-0.5 0.2-1 0-0.3 0-0.6 0-0.3 0-0.5 0-0.1 0-0.1-0.1-0.2-0.2-0.5c0 0 0-0.1-0.1 0q-0.4 0.2-0.8 0.4-0.6 0.4-1.1 0.9-0.4 0.3-0.6 0.6-0.1 0.1 0 0.1 0.2 0.2 0.4 0.4 0.1 0 0.2 0.1zm-7.1 3.4q0.2 0 0.4 0 0.2 0 0.4-0.1 0.1 0 0.1-0.2 0.1-0.2 0-0.4c0-0.2-0.2-0.4-0.4-0.5q-0.2-0.2-0.5-0.1c-0.3 0-0.7 0.3-0.7 0.7 0 0.1 0 0.2 0 0.4 0.1 0.1 0.2 0.2 0.3 0.2q0.2 0 0.4 0z"/>
	<path id="Layer" class="s1" d="m14.8 10.5c0-0.1 0-0.2 0-0.3q0-0.2-0.1-0.5 0-0.4 0-0.7-0.1-0.5-0.3-1-0.1-0.4-0.2-0.7c-0.1-0.3-0.3-0.5-0.4-0.8q-0.1-0.1 0-0.3 0.2-0.6 0.3-1.2 0.2-0.5 0.3-1 0 0 0-0.1 0.3 0.5 0.5 0.9 0.3 0.7 0.6 1.3 0.1 0.6 0.2 1.1 0.2 0.9 0.2 1.7 0 0.6-0.1 1.3-0.3 1.6-1.1 2.9-0.9 1.4-2.2 2.4-0.8 0.6-1.6 0.9-0.5 0.2-1 0.4-0.6 0.1-1.2 0.2-0.7 0-1.4 0-0.6-0.1-1.2-0.2-0.8-0.2-1.5-0.6-1.8-0.8-2.9-2.4-0.6-0.8-1-1.7-0.3-0.6-0.4-1.1-0.2-0.6-0.2-1.2-0.1-0.9-0.1-1.8 0.1-0.7 0.3-1.4 0.3-1.3 1.1-2.5 0-0.1 0-0.1 0.1 0.3 0.1 0.6 0.1 0.4 0.2 0.7 0.2 0.5 0.4 1 0 0.1 0 0.1-0.3 0.5-0.4 0.9-0.1 0.1-0.1 0 0 0 0 0.1c0 0 0 0.1 0 0.1q-0.2 0.5-0.3 1-0.1 0.3-0.1 0.6-0.1 0.4-0.1 0.8-0.1 0.3-0.1 0.5 0 0.4 0.1 0.7 0.1 0.5 0.4 1c0.4 0.6 0.9 1.1 1.4 1.6q1.1 0.9 2.5 1.5 0.3 0.1 0.5 0.2 0.2 0.1 0.4 0.2 0.2 0 0.3 0.1 0.5 0.1 1 0.2 0.5 0 1.1-0.1 0.5-0.1 1-0.2 0.5-0.2 1-0.4 0.6-0.3 1.2-0.7 0.6-0.4 1.2-0.8 0.2-0.2 0.4-0.5 0 0 0 0 0 0 0 0 0.4-0.4 0.7-0.8 0.1-0.3 0.2-0.6 0.3-0.4 0.4-1 0-0.1 0-0.3z"/>
	<path id="Layer" class="s1" d="m11.7 1.5q-0.2 0.3-0.5 0.5-0.3 0.4-0.6 0.8c0 0.1 0 0.1-0.1 0.1q-0.7-0.3-1.3-0.4-0.8-0.1-1.6-0.1-0.5 0-1 0.1-0.6 0.1-1.2 0.4-0.1 0-0.2-0.1-0.3-0.4-0.6-0.7-0.3-0.3-0.5-0.5 0-0.1 0-0.1 0.7-0.4 1.4-0.6 0.7-0.2 1.4-0.3 0.8-0.2 1.7-0.1 0.6 0.1 1.2 0.2 1 0.3 1.9 0.8 0 0 0 0z"/>
	<path id="Layer" fill-rule="evenodd" class="s2" d="m13.5 13.2q-0.2 0.3-0.4 0.5-0.6 0.4-1.2 0.8-0.6 0.4-1.2 0.7-0.5 0.2-1 0.4-0.5 0.1-1 0.2-0.6 0.1-1.1 0.1-0.5-0.1-1-0.2-0.1-0.1-0.3-0.1-0.2-0.1-0.4-0.2-0.2-0.1-0.5-0.2-1.4-0.6-2.5-1.5c-0.5-0.5-1-1-1.4-1.6q-0.3-0.5-0.4-1-0.1-0.3-0.1-0.7 0.3 0 0.5 0 0.6-0.1 1.1 0c0.9 0.1 1.6 0.6 2.3 1.3q0 0 0 0 0.1-0.1 0.2-0.3 0.1-0.4 0.4-0.7c0.1-0.2 0.1-0.3 0.3-0.5 0.3-0.4 0.8-0.7 1.3-0.9q0.4-0.1 0.8-0.1 0.8 0 1.5 0.4 0.5 0.3 0.8 0.7 0.1 0.1 0.2 0.2c0.1 0.3 0.3 0.6 0.4 0.9q0 0.2 0.1 0.3 0.1-0.1 0.3-0.2 0.5-0.5 1.2-0.8 0.5-0.2 1.1-0.3 0.5 0 1 0 0.1 0 0.3 0.1 0 0.2 0 0.3-0.1 0.6-0.4 1-0.1 0.3-0.2 0.6-0.3 0.4-0.7 0.8 0 0 0 0c0 0 0 0 0-0.1q0 0.1 0 0.1 0 0-0.1 0 0 0 0.1 0zm0 0q0 0 0 0 0 0 0 0zm-0.3 0.3q0 0 0 0 0 0 0 0 0 0 0 0 0 0 0 0zm-4.3 2.2q0 0 0 0zm-0.2 0.1q0.1 0 0.1-0.1 0 0-0.1 0.1zm1.2-3q-0.3 0-0.5 0-0.1 0-0.1 0 0 0.1-0.1 0.1-0.2 0-0.4 0c-0.1 0-0.2 0-0.2 0-0.1-0.1-0.1-0.2-0.1-0.2q-0.1-0.1-0.1-0.1-0.1 0-0.1 0 0-0.3 0-0.5 0 0 0-0.1 0.2 0 0.4-0.1 0.3-0.3 0.4-0.6c0-0.2 0-0.4 0-0.6 0-0.2-0.2-0.4-0.4-0.4q-0.6 0-1.2 0c-0.3 0-0.4 0.2-0.4 0.4q0 0.2 0 0.3 0 0.4 0.2 0.6 0.3 0.3 0.7 0.4 0 0 0 0.1 0 0.2 0 0.5 0 0 0 0c-0.1 0-0.1 0-0.1 0.1q-0.1 0.1-0.1 0.1 0 0.1-0.1 0.1-0.3 0-0.7 0-0.1 0-0.1-0.1 0 0 0 0-0.3 0-0.6 0 0 0 0 0 0 0 0 0.1 0.1 0 0.1 0 0.1 0.1 0.1 0.2 0 0.1 0 0.2 0 0.1 0.1 0c0 0 0.1 0 0.1 0.1q0 0.1 0.1 0.2 0 0.2 0.1 0.4c0.1-0.1 0.1-0.2 0.1-0.3q0-0.3 0-0.6 0 0 0.1 0 0.4 0.1 0.8 0.1 0.7 0 1.3-0.1 0.1 0 0.1 0 0 0.3 0 0.6c0 0.1 0 0.2 0.1 0.3q0.1-0.3 0.2-0.5c0-0.1 0-0.1 0.1-0.1q0.1 0 0.1-0.1 0-0.2 0.1-0.5zm-1.9 0.5q-0.2 0-0.5 0c-0.1 0-0.1 0-0.1 0.1q0 0.1 0 0.1 0.1 0 0.2 0.1 0.1 0 0.1-0.1c0-0.1 0-0.1 0.1 0q0.1 0 0.1 0 0 0.1 0.1 0.2 0.1 0.1 0.2 0 0-0.1 0.1-0.1c0.1-0.1 0.1-0.1 0.2 0q0 0 0 0c0.1 0 0.2-0.1 0.2-0.2q0-0.1-0.1-0.1-0.3 0-0.6 0zm5.4 0q0-0.1 0-0.1 0 0 0 0 0 0 0 0 0 0.1 0 0.1 0 0 0 0 0 0 0 0 0 0 0 0 0 0 0 0 0 0 0 0 0 0 0 0zm-0.1 0q0 0 0 0 0 0 0 0 0 0 0 0 0 0 0 0zm0 0.1q0 0 0 0 0 0 0 0 0 0 0 0 0 0 0 0zm-0.1 0zm0.1 0zm-0.1 0.1v-0.1z"/>
	<path id="Layer" class="s3" d="m2 1.1q0.1 0 0.3 0.1 0.3 0.2 0.6 0.4 0.3 0.2 0.5 0.4 0.4 0.3 0.8 0.6 0.2 0.2 0.3 0.4 0.1 0.1 0 0.1-0.3 0.2-0.5 0.4-0.3 0.3-0.6 0.6-0.3 0.3-0.6 0.7-0.2 0.3-0.4 0.6 0 0 0 0-0.1 0-0.1 0 0-0.3-0.1-0.6-0.1-0.4-0.2-0.7-0.1-0.3-0.2-0.6 0-0.2 0-0.4-0.1-0.2-0.1-0.4 0-0.3 0-0.6c0-0.3 0-0.7 0.2-0.9 0-0.1 0-0.1 0.1-0.1z"/>
	<path id="Layer" class="s4" d="m14 1.7q0 0.2 0 0.5 0 0.3 0 0.6-0.1 0.5-0.2 1-0.1 0.4-0.2 0.8-0.1 0.4-0.2 0.7c0 0.1-0.1 0.1-0.1 0.1 0 0 0 0 0-0.1q-0.2-0.2-0.4-0.5-0.2-0.3-0.4-0.5-0.3-0.3-0.5-0.6-0.1 0-0.2-0.1 0 0 0.1 0 0.1-0.3 0.2-0.5 0.2-0.4 0.5-0.7 0.3-0.4 0.7-0.6 0.3-0.1 0.7-0.1z"/>
	<path id="Layer" class="s5" d="m3.7 7.9c0-0.1 0-0.3 0-0.4q0.1-0.1 0.2-0.1 0.2 0 0.5 0.1c0.5 0.3 1 0.6 1.5 0.9q0.3 0.2 0.5 0.5 0 0.1 0 0.2 0 0.1-0.1 0.1-0.1 0-0.2 0-0.4 0-0.7-0.1-0.4 0-0.7-0.2c-0.3-0.1-0.6-0.2-0.9-0.5q-0.1-0.1-0.1-0.2 0-0.2 0-0.3z"/>
	<path id="Layer" class="s6" d="m12.3 8q-0.1 0.1-0.1 0.2 0 0.1 0 0.2-0.3 0.2-0.6 0.4-0.4 0.2-1 0.3-0.3 0.1-0.8 0.1-0.1 0-0.2 0-0.1 0 0-0.1c0-0.3 0.1-0.4 0.3-0.6 0.2-0.1 0.4-0.3 0.6-0.4q0.4-0.3 0.9-0.5c0.2-0.1 0.4-0.2 0.6-0.2 0.2 0 0.2 0 0.2 0.1q0.1 0.2 0.1 0.5z"/>
	<path id="Layer" class="s7" d="m14 1.7q-0.4 0-0.7 0.1-0.4 0.2-0.7 0.6-0.3 0.3-0.5 0.7-0.1 0.2-0.2 0.5-0.1 0-0.1 0-0.1-0.1-0.2-0.1-0.2-0.2-0.4-0.4-0.1 0 0-0.1 0.2-0.3 0.6-0.6 0.5-0.5 1.1-0.9 0.4-0.2 0.8-0.4c0.1-0.1 0.1 0 0.1 0q0.1 0.3 0.2 0.5 0 0 0 0.1z"/>
	<path id="Layer" class="s2" d="m11.1 7c-0.3 0-0.5 0-0.8-0.1q-0.3-0.1-0.2-0.4c0-0.3 0.1-0.4 0.3-0.6q0.1-0.1 0.3-0.2 0.3-0.1 0.6 0.1 0.4 0.2 0.5 0.6 0 0.2-0.1 0.4c-0.1 0.1-0.2 0.2-0.3 0.2q-0.2 0-0.3 0z"/>
	<path id="Layer" class="s2" d="m4.7 7q-0.2 0-0.4 0c-0.1 0-0.2-0.1-0.3-0.2 0-0.2 0-0.3 0-0.4 0-0.4 0.4-0.7 0.7-0.7q0.3-0.1 0.5 0.1c0.2 0.1 0.4 0.3 0.4 0.5q0.1 0.2 0 0.4 0 0.2-0.1 0.2-0.2 0.1-0.4 0.1-0.2 0-0.4 0z"/>
	<path id="Layer" class="s8" d="m13.5 13.2q0 0 0-0.1c0 0.1 0 0.1 0 0.1q0 0 0 0 0 0 0 0z"/>
	<path id="Layer" class="s2" d="m13.5 13.2q0 0 0 0 0 0 0 0 0 0 0 0 0 0 0 0z"/>
	<path id="Layer" class="s9" d="m9.9 12.8q0 0.3-0.1 0.5 0 0.1-0.1 0.1c-0.1 0-0.1 0-0.1 0.1q-0.1 0.2-0.2 0.5c-0.1-0.1-0.1-0.2-0.1-0.3q0-0.3 0-0.6 0 0-0.1 0-0.6 0.1-1.3 0.1-0.4 0-0.8-0.1-0.1 0-0.1 0 0 0.3 0 0.6c0 0.1 0 0.2-0.1 0.3q-0.1-0.2-0.1-0.3-0.1-0.2-0.1-0.3c0-0.1-0.1-0.1-0.1-0.1q-0.1 0.1-0.1 0 0-0.1 0-0.2 0-0.1-0.1-0.2 0 0-0.1 0 0-0.1 0-0.1 0 0 0 0 0.3 0 0.6 0 0 0 0 0 0 0.1 0.1 0.1 0.4 0 0.7 0 0.1 0 0.1-0.1 0 0 0.1-0.1c0-0.1 0-0.1 0.1-0.1q0 0 0 0 0-0.3 0-0.5 0 0 0-0.1-0.4-0.1-0.7-0.4-0.2-0.2-0.2-0.6 0-0.1 0-0.3c0-0.2 0.1-0.4 0.4-0.4q0.6 0 1.2 0c0.2 0 0.4 0.2 0.4 0.4 0 0.2 0 0.4 0 0.6q-0.1 0.3-0.4 0.6-0.2 0.1-0.4 0.2 0 0 0 0 0 0.2 0 0.5 0 0 0.1 0 0 0 0.1 0.1c0 0 0 0.1 0.1 0.2 0 0 0.1 0 0.2 0q0.2 0 0.4 0 0.1 0 0.1-0.1 0 0 0.1 0 0.2 0 0.5 0z"/>
	<path id="Layer" class="s10" d="m8 13.3q0.3 0 0.6 0 0.1 0 0.1 0.1c0 0.1-0.1 0.2-0.2 0.2q0 0 0 0c-0.1-0.1-0.1-0.1-0.2 0q-0.1 0-0.1 0.1-0.1 0.1-0.2 0-0.1-0.1-0.1-0.2 0 0-0.1 0c-0.1-0.1-0.1-0.1-0.1 0q0 0.1-0.1 0.1-0.1-0.1-0.2-0.1 0 0 0-0.1c0-0.1 0-0.1 0.1-0.1q0.3 0 0.5 0z"/>
	<path id="Layer" class="s8" d="m8.7 15.8q0.1-0.1 0.1-0.1 0 0.1-0.1 0.1z"/>
	<path id="Layer" class="s8" d="m8.9 15.7q0 0 0 0z"/>
	<path id="Layer" class="s8" d="m13.5 13.2q0 0 0 0-0.1 0-0.1 0 0.1 0 0.1 0z"/>
	<path id="Layer" class="s8" d="m13.4 13.3q0 0 0 0 0 0 0 0z"/>
	<path id="Layer" class="s11" d="m13.4 13.3q0 0 0 0 0 0 0 0 0 0 0 0z"/>
	<path id="Layer" class="s11" d="m13.2 13.5q0 0 0 0 0 0 0 0 0 0 0 0 0 0 0 0z"/>
	<path id="Layer" class="s8" d="m13.4 13.3q0-0.1 0-0.1 0 0 0 0 0 0 0 0.1z"/>
	<path id="Layer" class="s8" d="m13.4 13.3q0 0 0 0 0 0 0 0 0 0 0 0z"/>
	<path id="Layer" class="s11" d="m13.3 13.3q0 0 0 0 0 0 0 0z"/>
	<path id="Layer" class="s11" d="m13.3 13.3q0 0 0 0 0 0 0 0 0 0 0 0z"/>
	<path id="Layer" class="s11" d="m13.3 13.4z"/>
	<path id="Layer" class="s11" d="m13.3 13.4q0 0 0 0 0 0 0 0z"/>
	<path id="Layer" class="s11" d="m13.3 13.4q0 0 0 0 0 0 0 0 0 0 0 0z"/>
	<path id="Layer" class="s11" d="m13.2 13.4z"/>
	<path id="Layer" class="s11" d="m13.2 13.5z"/>
</svg>