<svg width="36" height="36" viewBox="0 0 36 36" fill="none" xmlns="http://www.w3.org/2000/svg">
<path d="M25.4511 23.9999C25.3268 24.0017 25.2035 23.9787 25.0882 23.9324C24.9729 23.8861 24.868 23.8173 24.7795 23.7301C24.6911 23.6428 24.6208 23.5389 24.5729 23.4243C24.5249 23.3097 24.5002 23.1866 24.5002 23.0624C24.5002 22.9382 24.5249 22.8152 24.5729 22.7005C24.6208 22.5859 24.6911 22.482 24.7795 22.3948C24.868 22.3075 24.9729 22.2388 25.0882 22.1924C25.2035 22.1461 25.3268 22.1231 25.4511 22.1249H28.8129L21.7011 15.0131L14.8639 21.8502C14.6881 22.026 14.4497 22.1247 14.2011 22.1247C13.9525 22.1247 13.7141 22.026 13.5382 21.8502L4.78823 13.1002C4.69826 13.0139 4.62643 12.9104 4.57694 12.7959C4.52746 12.6814 4.50132 12.5582 4.50005 12.4335C4.49878 12.3087 4.52241 12.185 4.56956 12.0695C4.6167 11.9541 4.68642 11.8491 4.77461 11.7609C4.86281 11.6727 4.96772 11.603 5.0832 11.5559C5.19868 11.5087 5.3224 11.4851 5.44713 11.4864C5.57185 11.4876 5.69507 11.5138 5.80956 11.5633C5.92406 11.6128 6.02753 11.6846 6.11392 11.7746L14.2011 19.8617L21.0382 13.0246C21.2141 12.8488 21.4525 12.7501 21.7011 12.7501C21.9497 12.7501 22.1881 12.8488 22.3639 13.0246L30.1386 20.7992V17.4374C30.1368 17.3132 30.1598 17.1898 30.2061 17.0746C30.2524 16.9593 30.3212 16.8543 30.4084 16.7659C30.4957 16.6774 30.5996 16.6071 30.7142 16.5592C30.8288 16.5112 30.9518 16.4866 31.0761 16.4866C31.2003 16.4866 31.3233 16.5112 31.4379 16.5592C31.5526 16.6071 31.6565 16.6774 31.7437 16.7659C31.831 16.8543 31.8997 16.9593 31.9461 17.0746C31.9924 17.1898 32.0153 17.3132 32.0136 17.4374V23.0624C32.0135 23.311 31.9148 23.5495 31.739 23.7253C31.5631 23.9011 31.3247 23.9999 31.0761 23.9999H25.4511Z" fill="#F6475D"/>
</svg>
