<svg version="1.2" xmlns="http://www.w3.org/2000/svg" viewBox="0 0 40 43" width="40" height="43">
	<title>shib-logo-svg</title>
	<style>
		.s0 { fill: #f4a817 } 
		.s1 { fill: #f00500 } 
		.s2 { fill: #fffefe } 
		.s3 { fill: #f28f1f } 
		.s4 { fill: #f28b20 } 
		.s5 { fill: #1f1712 } 
		.s6 { fill: #1f1713 } 
		.s7 { fill: #f2991d } 
		.s8 { fill: #f6d9a7 } 
		.s9 { fill: #1d1919 } 
		.s10 { fill: #171413 } 
		.s11 { fill: #f7ddb0 } 
	</style>
	<path id="Layer" fill-rule="evenodd" class="s0" d="m29.3 3.8c0.5-0.4 0.9-0.9 1.4-1.3 0.8-0.7 1.8-1.4 2.8-1.8 0.7-0.4 1.4-0.6 2.1-0.6 0.1 0 0.2 0 0.3 0.1q0.3 0.6 0.5 1.4c0.3 1 0.3 2 0.3 3.1q0 1.3-0.2 2.5-0.2 1-0.4 2-0.1 0.4-0.1 0.8-0.1 0-0.1 0.1-0.3 1.3-0.6 2.6-0.4 1.5-0.9 3c-0.1 0.3 0 0.5 0.1 0.7 0.3 0.8 0.7 1.4 1 2.2q0.3 0.7 0.6 1.5 0.4 1.3 0.6 2.7 0.1 0.8 0.2 1.7 0 0.7 0.1 1.4c0 0.2 0 0.4 0 0.6q-0.4-0.1-0.8-0.2c-0.8 0-1.6-0.1-2.4 0q-1.5 0.1-2.8 0.7-1.7 0.7-3.1 2-0.3 0.3-0.7 0.7-0.1-0.4-0.3-0.8c-0.2-0.8-0.6-1.5-1-2.3q-0.2-0.3-0.4-0.6-0.9-1-2-1.7c-1.1-0.7-2.4-1-3.8-1-0.7 0-1.3 0.1-2 0.3-1.3 0.4-2.4 1.2-3.3 2.2-0.3 0.4-0.5 0.9-0.8 1.3q-0.5 0.8-0.9 1.7-0.2 0.5-0.4 0.9-0.1-0.1-0.1-0.2c-1.6-1.7-3.4-2.8-5.8-3.2q-1.3-0.2-2.6-0.1-0.6 0.1-1.2 0.2 0-0.7 0-1.4 0.1-1 0.3-1.9 0.1-0.8 0.3-1.6 0.3-1.2 0.8-2.4c0-0.2 0.1-0.4-0.1-0.5q0 0 0.1-0.1 0.1 0.2 0.2 0 0.4-1.2 0.9-2.3 0.1-0.1 0.1-0.2-0.5-1.2-0.9-2.5-0.2-0.9-0.5-1.9-0.1-0.7-0.3-1.4c0-0.4-0.1-0.7-0.1-1.1q-0.2-0.9-0.3-1.8-0.1-0.9-0.1-1.8-0.1-0.9 0-1.8c0-0.7 0.1-1.5 0.2-2.2q0.2-0.6 0.5-1.1c0.2-0.4 0.4-0.4 0.9-0.4 0.8 0.1 1.5 0.5 2.2 0.9 0.9 0.6 1.7 1.3 2.5 2.1q0.4 0.4 0.9 0.9 0 0 0 0 0.7 0.7 1.2 1.3 0.9 1 1.7 1.9c0.1 0.2 0.2 0.2 0.4 0.1q1.4-0.6 2.9-0.8c0.9-0.2 1.8-0.3 2.7-0.3q1.9-0.1 3.8 0.2 1.7 0.3 3.3 0.9c0.3 0.1 0.3 0.1 0.4-0.1q0.7-1 1.5-1.9 0.6-0.7 1.2-1.4zm-1.6 13.9c0.2 0 0.5 0 0.8-0.1 0.3 0 0.5 0 0.7-0.3q0.4-0.5 0.3-1.2c-0.1-0.7-0.6-1.2-1.2-1.5-0.5-0.3-1-0.4-1.5-0.2-0.4 0.1-0.6 0.3-0.9 0.5-0.4 0.4-0.7 0.9-0.8 1.5q0 0.8 0.8 1.1c0.5 0.1 1.1 0.2 1.8 0.2zm2.9 2.4c0-0.3 0-0.7-0.1-1-0.1-0.5-0.1-0.5-0.5-0.4-0.6 0-1.1 0.3-1.6 0.5q-1.1 0.6-2.1 1.3c-0.6 0.3-1.1 0.7-1.6 1.1-0.4 0.4-0.7 0.8-0.8 1.3q-0.1 0.3 0.2 0.3 0.2 0.1 0.5 0.1c0.7 0 1.4-0.1 2-0.3q1.3-0.3 2.4-0.8c0.6-0.3 1-0.6 1.4-1 0.1-0.2 0.2-0.3 0.2-0.4q0-0.4 0-0.7zm-21.4 0c0 0.1 0 0.4 0 0.6 0 0.3 0.1 0.4 0.3 0.6 0.6 0.6 1.4 1 2.3 1.3q0.8 0.3 1.7 0.5 0.8 0.2 1.7 0.2 0.3 0 0.6-0.1c0.2 0 0.3-0.1 0.2-0.3q0-0.2-0.1-0.4c-0.3-0.5-0.7-0.9-1.2-1.2-1.2-0.9-2.4-1.7-3.8-2.3-0.4-0.1-0.8-0.3-1.3-0.3-0.1 0-0.2 0.1-0.3 0.2-0.1 0.4-0.1 0.7-0.1 1.2zm-4.3-17.4c-0.1 0-0.1 0-0.2 0.2-0.4 0.7-0.5 1.5-0.5 2.3 0 0.5 0 1 0.1 1.5q0 0.5 0.1 1 0.1 0.6 0.2 1.1 0.1 0.8 0.3 1.5 0.2 0.9 0.5 1.8 0.2 0.8 0.5 1.5 0 0.1 0 0.1 0.1 0 0.1-0.1 0.5-0.8 1.1-1.5 0.7-1 1.5-1.8 0.6-0.7 1.3-1.4 0.7-0.5 1.4-1 0.2-0.1 0.1-0.2-0.5-0.5-1-1-0.9-0.9-1.8-1.7-0.7-0.5-1.4-1.1-0.7-0.5-1.5-0.9-0.4-0.2-0.8-0.3zm24.7 6.4c0 0.2 0.2 0.2 0.3 0.3 0.4 0.5 0.9 1 1.4 1.5q0.5 0.6 1 1.2 0.5 0.7 0.9 1.4c0 0.1 0.1 0.2 0.1 0.2 0.1 0 0.1-0.2 0.1-0.2q0.3-0.9 0.6-1.9 0.3-1 0.5-2.1 0.3-1.1 0.4-2.3 0.1-0.8 0.2-1.6c0-0.5-0.1-0.9-0.1-1.4q-0.1 0-0.1-0.1-0.1-0.6-0.3-1.2c-0.1-0.2-0.1-0.2-0.4-0.2q-1 0.5-2 1.1c-1 0.7-1.9 1.5-2.8 2.4q-0.8 0.7-1.5 1.5c-0.1 0.1-0.1 0.1 0 0.2q0.6 0.4 1.2 0.9c0.1 0.1 0.3 0.2 0.5 0.3zm-17.8 8.6c0.3 0 0.6 0 0.9-0.1q0.5 0 0.9-0.2c0.2 0 0.4-0.1 0.5-0.3q0.2-0.6 0-1.1c-0.1-0.6-0.6-1-1-1.4q-0.6-0.4-1.3-0.3c-0.9 0.1-1.8 0.9-1.9 1.8 0 0.3 0 0.7 0.2 1.1 0.2 0.2 0.3 0.4 0.6 0.4q0.5 0.1 1.1 0.1z"/>
	<path id="Layer" class="s1" d="m37 26.5c0-0.2 0-0.4 0-0.6q-0.1-0.7-0.1-1.4-0.1-0.9-0.2-1.7-0.2-1.4-0.6-2.7-0.3-0.8-0.6-1.5c-0.3-0.8-0.7-1.4-1-2.2-0.1-0.2-0.2-0.4-0.1-0.7q0.5-1.5 0.9-3 0.3-1.3 0.6-2.6 0-0.1 0.1-0.1 0.7 1.1 1.3 2.3 0.8 1.5 1.3 3.1 0.5 1.4 0.7 2.9 0.4 2.1 0.4 4.2 0 1.6-0.3 3.2-0.7 4-2.8 7.5-2.1 3.6-5.4 6.1-1.9 1.3-4 2.2-1.3 0.5-2.6 0.9-1.4 0.4-2.8 0.5-1.8 0.2-3.6 0-1.5-0.1-3-0.5-2-0.5-3.8-1.4c-2.9-1.4-5.3-3.5-7.2-6.1q-1.6-2-2.5-4.4-0.6-1.3-1-2.8-0.4-1.4-0.5-2.9-0.3-2.2-0.1-4.5 0.1-1.8 0.5-3.5 0.9-3.5 2.9-6.6 0 0 0 0 0.2 0.7 0.3 1.4 0.3 1 0.5 1.9 0.4 1.3 0.9 2.5 0 0.1-0.1 0.2-0.5 1.1-0.9 2.3-0.1 0.2-0.2 0-0.1 0.1-0.1 0.1c0.2 0.1 0.1 0.3 0.1 0.5q-0.5 1.2-0.8 2.4-0.2 0.8-0.3 1.6-0.2 0.9-0.3 1.9 0 0.7 0 1.4-0.1 0.9 0.1 1.8 0.4 1.3 1.1 2.4c1 1.5 2.2 2.8 3.5 3.9q2.8 2.4 6.2 4 0.7 0.3 1.3 0.6 0.5 0.2 1.1 0.3 0.3 0.1 0.6 0.2 1.2 0.4 2.4 0.5 1.4 0.2 2.8-0.1 1.3-0.2 2.5-0.6 1.3-0.4 2.4-0.9 1.7-0.8 3.3-1.8 1.4-1 2.7-2.2c0.4-0.3 0.8-0.6 1.1-1q0 0 0.1-0.1 0 0 0-0.1c0.6-0.6 1.2-1.3 1.6-2.1 0.3-0.4 0.5-0.8 0.7-1.2q0.6-1.2 0.8-2.6 0.1-0.5 0.1-0.9z"/>
	<path id="Layer" class="s1" d="m29.3 3.8q-0.6 0.7-1.2 1.4-0.8 0.9-1.5 1.9c-0.1 0.2-0.1 0.2-0.4 0.1q-1.6-0.6-3.3-0.9-1.9-0.3-3.8-0.2c-0.9 0-1.8 0.1-2.7 0.3q-1.5 0.2-2.9 0.8c-0.2 0.1-0.3 0.1-0.4-0.1q-0.8-0.9-1.7-1.9-0.5-0.6-1.2-1.3 0 0 0 0 1.7-1.1 3.7-1.7 1.6-0.5 3.3-0.8 2.1-0.3 4.3-0.1 1.5 0.1 2.9 0.5 2.5 0.6 4.8 1.9 0.1 0 0.1 0.1z"/>
	<path id="Layer" fill-rule="evenodd" class="s2" d="m33.7 33.5c-0.3 0.4-0.7 0.7-1.1 1q-1.3 1.2-2.7 2.2-1.6 1-3.3 1.8-1.1 0.5-2.4 0.9-1.2 0.4-2.5 0.6-1.4 0.3-2.8 0.1-1.2-0.1-2.4-0.5-0.3-0.1-0.6-0.2-0.6-0.1-1.1-0.3-0.6-0.3-1.3-0.6-3.4-1.6-6.2-4c-1.3-1.1-2.5-2.4-3.5-3.9q-0.7-1.1-1.1-2.4-0.2-0.9-0.1-1.8 0.6-0.1 1.2-0.2 1.3-0.1 2.6 0.1c2.4 0.4 4.2 1.5 5.8 3.2q0 0.1 0.1 0.2 0.2-0.4 0.4-0.9 0.4-0.9 0.9-1.7c0.3-0.4 0.5-0.9 0.8-1.3 0.9-1 2-1.8 3.3-2.2 0.7-0.2 1.3-0.3 2-0.3 1.4 0 2.7 0.3 3.8 1q1.1 0.7 2 1.7 0.2 0.3 0.4 0.6c0.4 0.8 0.8 1.5 1 2.3q0.2 0.4 0.3 0.8 0.4-0.4 0.7-0.7 1.4-1.3 3.1-2 1.3-0.6 2.8-0.7c0.8-0.1 1.6 0 2.4 0q0.4 0.1 0.8 0.2 0 0.4-0.1 0.9-0.2 1.4-0.8 2.6c-0.2 0.4-0.4 0.8-0.7 1.2-0.4 0.8-1 1.5-1.6 2.1q0 0.1 0 0.1c-0.1-0.1 0-0.1 0-0.2 0 0.1-0.1 0.1-0.1 0.2q-0.1 0-0.1 0c0 0.1 0 0.1 0.1 0.1zm0-0.1q0 0 0 0 0 0 0 0zm-0.6 0.5zm0.2-0.1h-0.1 0.1zm-0.3 0.3q0 0-0.1 0 0 0 0 0 0 0 0.1 0 0 0 0 0zm-10.7 5.7h-0.2q0.1 0 0.2 0zm-0.5 0c0.1 0.1 0.2 0.1 0.3 0-0.1 0-0.2 0-0.3 0zm3-7.5q-0.7 0-1.4 0-0.1 0-0.1 0.1c0 0.1-0.1 0.2-0.2 0.2q-0.6-0.1-1.1-0.1c-0.2 0-0.4 0.1-0.6 0-0.1-0.1-0.2-0.3-0.3-0.4q0-0.2-0.2-0.2-0.1 0-0.1-0.1 0-0.6 0-1.2 0-0.1 0.1-0.1 0.4-0.2 0.8-0.5c0.5-0.4 0.9-0.9 1-1.5 0.1-0.5 0-0.9 0.1-1.3 0-0.6-0.6-1.1-1.1-1.1q-1.5 0-3 0c-0.6 0-1 0.4-1 1q0 0.4 0 0.8c0 0.6 0.2 1.1 0.6 1.5 0.5 0.5 1 0.8 1.7 1.1 0 0 0.1 0 0.1 0.1q0 0.6 0 1.2c0 0.1 0 0.1-0.1 0.1-0.2 0-0.2 0.1-0.3 0.2q-0.1 0.2-0.2 0.4-0.1 0.1-0.2 0.1-0.9 0-1.9-0.1c0 0-0.1 0-0.1-0.1 0-0.1 0-0.1-0.1-0.1q-0.7 0-1.3 0c-0.1 0-0.1 0-0.1 0.1q-0.1 0 0 0.1 0.1 0.1 0.2 0.2 0.2 0.2 0.2 0.3 0 0.3 0.1 0.6c0 0.2 0 0.2 0.2 0.2 0.1-0.1 0.2-0.1 0.2 0.1q0.1 0.3 0.2 0.6 0.1 0.5 0.4 0.8c0.2-0.2 0.2-0.4 0.2-0.7q0-0.8 0-1.5 0.1 0 0.2 0c0.7 0.1 1.4 0.2 2.1 0.2q1.6 0.1 3.2-0.2c0.2 0 0.2 0 0.2 0.1q0 0.8 0 1.6c0 0.2 0.1 0.3 0.2 0.5q0.3-0.6 0.5-1.3c0.1-0.2 0.1-0.2 0.4-0.2 0.1 0 0.1 0 0.2-0.1q0.1-0.7 0.3-1.4zm-4.7 1.4q-0.7 0-1.4 0c-0.2 0-0.2 0-0.2 0.3q0 0.1 0.1 0.1 0.2 0.1 0.4 0.2c0.1 0.1 0.2 0.1 0.2-0.1 0.1-0.2 0.1-0.2 0.3-0.2q0.2 0 0.2 0.1 0.1 0.2 0.3 0.5c0.1 0.2 0.3 0.2 0.5 0q0.1-0.1 0.2-0.3c0.2-0.3 0.2-0.3 0.5 0 0.1 0 0.1 0.1 0.1 0.1 0.3-0.1 0.5-0.3 0.5-0.6 0-0.1-0.1-0.1-0.2-0.1q-0.7 0-1.5 0zm13.4-0.2q0 0 0.1 0-0.1 0-0.1 0 0 0 0 0 0 0 0 0.1-0.1-0.1-0.1 0 0 0 0 0 0 0 0 0 0 0 0 0 0.1 0 0.1 0 0-0.1 0-0.1zm-0.2 0.2q0.1 0 0 0 0 0 0 0 0 0 0 0 0 0 0 0zm-0.1 0.2q0 0 0 0 0-0.1 0 0 0 0 0 0 0 0 0 0zm-0.2 0.1z"/>
	<path id="Layer" class="s3" d="m4.9 2.7q0.4 0.1 0.8 0.3 0.8 0.4 1.5 0.9 0.7 0.6 1.4 1.1 0.9 0.8 1.8 1.7 0.5 0.5 1 1 0.1 0.1-0.1 0.2-0.7 0.5-1.4 1-0.7 0.7-1.3 1.4-0.8 0.8-1.5 1.8-0.6 0.7-1.1 1.5 0 0.1-0.1 0.1 0 0 0-0.1-0.3-0.7-0.5-1.5-0.3-0.9-0.5-1.8-0.2-0.7-0.3-1.5-0.1-0.5-0.2-1.1-0.1-0.5-0.1-1c-0.1-0.5-0.1-1-0.1-1.5 0-0.8 0.1-1.6 0.5-2.3 0.1-0.2 0.1-0.2 0.2-0.2z"/>
	<path id="Layer" class="s4" d="m35 4.2c0 0.5 0.1 0.9 0.1 1.4q-0.1 0.8-0.2 1.6-0.1 1.2-0.4 2.3-0.2 1.1-0.5 2.1-0.3 1-0.6 1.9c0 0 0 0.2-0.1 0.2 0 0-0.1-0.1-0.1-0.2q-0.4-0.7-0.9-1.4-0.5-0.6-1-1.2c-0.5-0.5-1-1-1.4-1.5-0.1-0.1-0.3-0.1-0.3-0.3q0 0 0-0.1 0.4-0.6 0.7-1.2 0.6-1 1.3-1.8c0.5-0.5 1.1-1 1.8-1.4 0.5-0.2 1-0.4 1.6-0.4z"/>
	<path id="Layer" class="s5" d="m9.2 20.1c0-0.5 0-0.8 0.1-1.2 0.1-0.1 0.2-0.2 0.3-0.2 0.5 0 0.9 0.2 1.3 0.3 1.4 0.6 2.6 1.4 3.8 2.3 0.5 0.3 0.9 0.7 1.2 1.2q0.1 0.2 0.1 0.4c0.1 0.2 0 0.3-0.2 0.3q-0.3 0.1-0.6 0.1-0.9 0-1.7-0.2-0.9-0.2-1.7-0.5c-0.9-0.3-1.7-0.7-2.3-1.3-0.2-0.2-0.3-0.3-0.3-0.6 0-0.2 0-0.5 0-0.6z"/>
	<path id="Layer" class="s6" d="m30.6 20.1q0 0.3 0 0.7c0 0.1-0.1 0.2-0.2 0.4-0.4 0.4-0.8 0.7-1.4 1q-1.1 0.5-2.4 0.8c-0.6 0.2-1.3 0.3-2 0.3q-0.3 0-0.5-0.1-0.3 0-0.2-0.3c0.1-0.5 0.4-0.9 0.8-1.3 0.5-0.4 1-0.8 1.6-1.1q1-0.7 2.1-1.3c0.5-0.2 1-0.5 1.6-0.5 0.4-0.1 0.4-0.1 0.5 0.4 0.1 0.3 0.1 0.7 0.1 1z"/>
	<path id="Layer" class="s7" d="m35 4.2c-0.6 0-1.1 0.2-1.6 0.4-0.7 0.4-1.3 0.9-1.8 1.4q-0.7 0.8-1.3 1.8-0.3 0.6-0.7 1.2 0 0.1 0 0.1c-0.2-0.1-0.4-0.2-0.5-0.3q-0.6-0.5-1.2-0.9c-0.1-0.1-0.1-0.1 0-0.2q0.7-0.8 1.5-1.5c0.9-0.9 1.8-1.7 2.8-2.4q1-0.6 2-1.1c0.3 0 0.3 0 0.4 0.2q0.2 0.6 0.3 1.2 0 0.1 0.1 0.1z"/>
	<path id="Layer" class="s2" d="m27.7 17.7c-0.7 0-1.3-0.1-1.8-0.2q-0.8-0.3-0.8-1.1c0.1-0.6 0.4-1.1 0.8-1.5 0.3-0.2 0.5-0.4 0.9-0.5 0.5-0.2 1-0.1 1.5 0.2 0.6 0.3 1.1 0.8 1.2 1.5q0.1 0.7-0.3 1.2c-0.2 0.3-0.4 0.3-0.7 0.3-0.3 0.1-0.6 0.1-0.8 0.1z"/>
	<path id="Layer" class="s2" d="m11.8 17.7q-0.6 0-1.1-0.1c-0.3 0-0.4-0.2-0.6-0.4-0.2-0.4-0.2-0.8-0.2-1.1 0.1-0.9 1-1.7 1.9-1.8q0.7-0.1 1.3 0.3c0.4 0.4 0.9 0.8 1 1.4q0.2 0.5 0 1.1c-0.1 0.2-0.3 0.3-0.5 0.3q-0.4 0.2-0.9 0.2c-0.3 0.1-0.6 0.1-0.9 0.1z"/>
	<path id="Layer" class="s8" d="m33.7 33.4c0-0.1 0.1-0.1 0.1-0.2 0 0.1-0.1 0.1 0 0.2q0 0 0 0-0.1 0-0.1 0z"/>
	<path id="Layer" class="s2" d="m33.7 33.4q0 0 0.1 0-0.1 0.1-0.1 0.1 0 0 0 0 0-0.1 0-0.1z"/>
	<path id="Layer" class="s9" d="m24.8 32.3q-0.2 0.7-0.3 1.4c-0.1 0.1-0.1 0.1-0.2 0.1-0.3 0-0.3 0-0.3 0.2q-0.3 0.7-0.6 1.3c-0.1-0.2-0.2-0.3-0.2-0.5q0-0.8 0-1.6c0-0.1 0-0.1-0.1-0.1q-1.7 0.3-3.3 0.2c-0.7 0-1.4 0-2.1-0.2q-0.1 0-0.2 0 0 0.8 0 1.5c0 0.3 0 0.5-0.2 0.7q-0.3-0.3-0.4-0.8-0.1-0.3-0.2-0.6c0-0.2-0.1-0.2-0.2-0.1-0.2 0-0.2 0-0.2-0.2q-0.1-0.3-0.1-0.5 0-0.2-0.2-0.4-0.1-0.1-0.2-0.2-0.1 0 0-0.1c0-0.1 0-0.1 0.1-0.1q0.6 0 1.3 0c0.1 0 0.1 0.1 0.1 0.2 0 0 0.1 0 0.1 0q1 0.1 1.9 0.1 0.1 0 0.2-0.1 0.1-0.2 0.2-0.4c0.1-0.1 0.1-0.2 0.3-0.2 0.1 0 0.1 0 0.1-0.1q0-0.6 0-1.2c0-0.1-0.1-0.1-0.1-0.1-0.6-0.3-1.2-0.6-1.7-1.1-0.4-0.4-0.6-0.9-0.6-1.5q0-0.4 0-0.8c0-0.6 0.4-1 1-1q1.5 0 3 0c0.5 0 1.1 0.5 1.1 1.1 0 0.4 0 0.9-0.1 1.3-0.1 0.6-0.5 1.1-1 1.5q-0.4 0.3-0.8 0.5-0.1 0-0.1 0.1 0 0.6 0 1.2 0 0.1 0.1 0.1 0.2 0 0.2 0.2c0.1 0.1 0.2 0.3 0.4 0.4 0.1 0.1 0.3 0.1 0.5 0.1q0.5 0 1.1 0c0.1 0 0.2-0.1 0.2-0.2q0-0.1 0.1-0.1 0.7 0 1.4 0z"/>
	<path id="Layer" class="s10" d="m20.1 33.7q0.8 0 1.5 0c0.1 0 0.2 0 0.2 0.2 0 0.2-0.2 0.4-0.4 0.5-0.1 0-0.1-0.1-0.2-0.1-0.3-0.2-0.3-0.2-0.5 0q-0.1 0.2-0.2 0.3c-0.2 0.2-0.4 0.2-0.5 0q-0.2-0.3-0.3-0.5 0-0.1-0.2-0.1c-0.2 0-0.2 0-0.3 0.2 0 0.2-0.1 0.2-0.2 0.1q-0.2 0-0.4-0.2-0.1 0-0.1-0.1c0-0.3 0-0.3 0.2-0.3q0.7 0 1.4 0z"/>
	<path id="Layer" class="s8" d="m21.8 39.9c0.1-0.1 0.2-0.1 0.3-0.1-0.1 0.1-0.2 0.1-0.3 0.1z"/>
	<path id="Layer" class="s8" d="m22.3 39.8q-0.1 0-0.1 0z"/>
	<path id="Layer" class="s8" d="m33.7 33.4q0 0 0 0.1c-0.1 0-0.1 0-0.1-0.1q0 0 0.1 0z"/>
	<path id="Layer" class="s8" d="m33.4 33.6q0 0 0.1 0 0 0-0.1 0z"/>
	<path id="Layer" class="s11" d="m33.4 33.6q0 0 0 0.1 0-0.1 0-0.1 0 0 0 0z"/>
	<path id="Layer" class="s11" d="m33 34.1q0 0 0 0 0 0 0 0-0.1 0 0 0 0 0 0 0z"/>
	<path id="Layer" class="s8" d="m33.5 33.5q0 0 0 0 0.1 0 0.1 0 0 0-0.1 0z"/>
	<path id="Layer" class="s8" d="m33.5 33.6q0-0.1 0-0.1 0 0 0 0 0 0 0 0.1z"/>
	<path id="Layer" class="s11" d="m33.3 33.7q0 0 0.1 0 0 0-0.1 0z"/>
	<path id="Layer" class="s11" d="m33.3 33.7q0 0 0 0 0 0 0 0 0 0 0 0z"/>
	<path id="Layer" class="s11" d="m33.3 33.8z"/>
	<path id="Layer" class="s11" d="m33.2 33.9q0-0.1 0 0 0 0 0 0z"/>
	<path id="Layer" class="s11" d="m33.2 33.9q0 0 0 0 0 0 0 0 0 0 0 0z"/>
	<path id="Layer" class="s11" d="m33.1 33.9z"/>
	<path id="Layer" class="s11" d="m33 34z"/>
</svg>