<svg width="33" height="41" viewBox="0 0 33 41" fill="none" xmlns="http://www.w3.org/2000/svg">
<g clip-path="url(#clip0_24_155)">
<path d="M13.3263 2.17695C13.2073 1.96763 13.0502 1.79703 12.8682 1.67934C12.6861 1.56164 12.4844 1.50024 12.2797 1.50024C12.075 1.50024 11.8732 1.56164 11.6912 1.67934C11.5092 1.79703 11.3521 1.96763 11.2331 2.17695C8.82796 6.55495 3.09961 17.47 3.09961 22.257C3.09961 28.317 7.2097 33.231 12.2793 33.231C17.3489 33.231 21.4598 28.317 21.4598 22.257C21.4598 17.47 15.7338 6.55495 13.3263 2.17695Z" fill="#03D1CF" fill-opacity="0.99"/>
<path d="M22.5068 7.946C22.3878 7.73667 22.2307 7.56608 22.0487 7.44838C21.8666 7.33069 21.6649 7.26929 21.4602 7.26929C21.2555 7.26929 21.0537 7.33069 20.8717 7.44838C20.6897 7.56608 20.5326 7.73667 20.4136 7.946C18.0084 12.324 12.2801 23.239 12.2801 28.026C12.2801 34.086 16.3902 39 21.4598 39C26.5294 39 30.6403 34.086 30.6403 28.026C30.6403 23.239 24.9143 12.324 22.5068 7.946Z" fill="#303FD0"/>
<path d="M12.2793 28.026C12.2793 24.374 15.6129 17.153 18.263 11.991C20.0134 15.891 21.459 19.849 21.459 22.257C21.4111 25.0108 20.5566 27.6457 19.0592 29.6569C17.5618 31.6681 15.5268 32.9144 13.3438 33.157C12.6457 31.5892 12.2792 29.8226 12.2793 28.026Z" fill="#50D0FE"/>
<g clip-path="url(#clip1_24_155)">
<path d="M11.5947 18.9634L1.64785 9.01656C1.18498 8.55381 0.869755 7.96418 0.742025 7.32225C0.614295 6.68032 0.679802 6.01493 0.930263 5.41024C1.18072 4.80554 1.60489 4.28871 2.14911 3.9251C2.69332 3.56149 3.33315 3.36744 3.98766 3.36749L8.38374 3.36537L8.38516 -5.73085C8.38535 -6.60846 8.73407 -7.45007 9.35463 -8.07064C9.9752 -8.6912 10.8168 -9.03992 11.6944 -9.04011L15.003 -9.03941C15.8808 -9.0394 16.7227 -8.69067 17.3435 -8.06993C17.9642 -7.44919 18.3129 -6.6073 18.3129 -5.72944L18.3144 3.36537L22.7111 3.36537C23.3659 3.36503 24.006 3.55893 24.5504 3.92252C25.0949 4.28612 25.5193 4.80306 25.7699 5.40793C26.0205 6.01279 26.086 6.6784 25.9581 7.32052C25.8303 7.96263 25.5148 8.55239 25.0517 9.01515L15.1034 18.9634C14.638 19.4285 14.007 19.6897 13.349 19.6897C12.6911 19.6897 12.0601 19.4285 11.5947 18.9634Z" fill="#04CFD0"/>
<path d="M25.1941 -7.931L35.1402 2.01517C35.6031 2.47793 35.9183 3.06756 36.046 3.70948C36.1738 4.35141 36.1083 5.0168 35.8578 5.62149C35.6073 6.22619 35.1832 6.74302 34.639 7.10663C34.0948 7.47024 33.4549 7.6643 32.8004 7.66424L28.4029 7.66495L28.4022 16.7619C28.402 17.6395 28.0533 18.4811 27.4327 19.1017C26.8122 19.7222 25.9706 20.0709 25.0929 20.0711H21.7851C20.9072 20.0711 20.0654 19.7224 19.4446 19.1017C18.8239 18.4809 18.4751 17.639 18.4751 16.7612V7.66495L14.0783 7.66495C13.4236 7.66528 12.7835 7.47138 12.239 7.10779C11.6946 6.7442 11.2702 6.22726 11.0196 5.62239C10.769 5.01752 10.7035 4.35192 10.8314 3.7098C10.9592 3.06769 11.2747 2.47793 11.7378 2.01517L21.684 -7.931C22.1495 -8.39646 22.7808 -8.65796 23.439 -8.65796C24.0973 -8.65796 24.7286 -8.39646 25.1941 -7.931Z" fill="#303FD0"/>
<g style="mix-blend-mode:screen">
<path d="M18.4749 7.66492H14.0749C13.4205 7.66468 12.7809 7.47036 12.2369 7.10654C11.693 6.74272 11.2692 6.22576 11.0191 5.62104C10.7691 5.01632 10.704 4.35102 10.8321 3.70929C10.9602 3.06757 11.2758 2.47826 11.7389 2.01592L18.3119 -4.55908V3.36592H22.7119C23.3664 3.36585 24.0062 3.55988 24.5504 3.92347C25.0947 4.28706 25.5188 4.80388 25.7693 5.40857C26.0198 6.01325 26.0853 6.67864 25.9576 7.32057C25.8299 7.9625 25.5147 8.55215 25.0519 9.01492L18.4749 15.5889V7.66492Z" fill="#04CFD0"/>
</g>
</g>
</g>
<defs>
<clipPath id="clip0_24_155">
<rect width="31.8242" height="40" fill="white" transform="translate(0.957031 0.5)"/>
</clipPath>
<clipPath id="clip1_24_155">
<rect width="42.872" height="40" fill="white" transform="translate(-3.04297 -12.5)"/>
</clipPath>
</defs>
</svg>
