<svg version="1.2" xmlns="http://www.w3.org/2000/svg" viewBox="0 0 25 27" width="25" height="27">
	<title>shib-logo-svg</title>
	<style>
		.s0 { fill: #f4a817 } 
		.s1 { fill: #f00500 } 
		.s2 { fill: #fffefe } 
		.s3 { fill: #f28f1f } 
		.s4 { fill: #f28b20 } 
		.s5 { fill: #1f1712 } 
		.s6 { fill: #1f1713 } 
		.s7 { fill: #f2991d } 
		.s8 { fill: #f6d9a7 } 
		.s9 { fill: #1d1919 } 
		.s10 { fill: #171413 } 
		.s11 { fill: #f7ddb0 } 
	</style>
	<path id="Layer" fill-rule="evenodd" class="s0" d="m18.3 2.4q0.4-0.4 0.9-0.8c0.5-0.5 1.1-0.9 1.7-1.2q0.7-0.3 1.4-0.4 0.1 0 0.1 0.1 0.3 0.4 0.4 0.9c0.1 0.6 0.2 1.3 0.1 1.9q0 0.8-0.1 1.6-0.1 0.7-0.2 1.3-0.1 0.2-0.1 0.5 0 0 0 0.1-0.2 0.8-0.4 1.6-0.3 0.9-0.6 1.8c0 0.2 0 0.4 0.1 0.5 0.2 0.5 0.4 0.9 0.6 1.4q0.2 0.4 0.3 0.9 0.3 0.9 0.4 1.7 0.1 0.5 0.1 1.1 0.1 0.4 0.1 0.9c0 0.1 0 0.2 0 0.3q-0.2 0-0.5-0.1-0.7-0.1-1.5 0-0.9 0.1-1.7 0.4-1.1 0.5-1.9 1.3-0.3 0.2-0.5 0.4-0.1-0.2-0.2-0.5c-0.1-0.5-0.4-0.9-0.6-1.4q-0.1-0.2-0.3-0.4-0.5-0.6-1.2-1c-0.7-0.5-1.5-0.7-2.4-0.7q-0.6 0-1.2 0.2c-0.9 0.3-1.5 0.8-2.1 1.4-0.2 0.3-0.3 0.5-0.5 0.8q-0.3 0.5-0.6 1.1-0.1 0.3-0.2 0.6-0.1-0.1-0.1-0.2c-1-1-2.1-1.8-3.6-2q-0.8-0.1-1.6 0-0.4 0-0.8 0.1 0-0.5 0.1-0.9 0-0.6 0.1-1.2 0.1-0.5 0.2-1 0.2-0.8 0.5-1.5c0-0.1 0.1-0.2 0-0.3q0 0 0-0.1 0.1 0.2 0.1 0 0.3-0.7 0.6-1.4 0-0.1 0-0.2-0.3-0.7-0.5-1.5-0.2-0.6-0.3-1.2-0.1-0.4-0.2-0.9c0-0.2-0.1-0.5-0.1-0.7q-0.1-0.5-0.1-1.1-0.1-0.6-0.1-1.2-0.1-0.5 0-1.1c0-0.4 0-0.9 0.1-1.3q0.1-0.4 0.3-0.7c0.2-0.3 0.3-0.3 0.6-0.3 0.5 0.1 0.9 0.3 1.4 0.6q0.8 0.5 1.5 1.3 0.3 0.2 0.6 0.5 0 0.1 0 0.1 0.4 0.4 0.8 0.8 0.5 0.6 1 1.2 0.1 0.1 0.2 0 0.9-0.3 1.9-0.5 0.8-0.1 1.6-0.2 1.2 0 2.4 0.2 1.1 0.1 2.1 0.5c0.1 0.1 0.1 0.1 0.2 0q0.5-0.7 1-1.3 0.3-0.4 0.7-0.8zm-1 8.7c0.2 0 0.3 0 0.5 0 0.2 0 0.4-0.1 0.5-0.2q0.2-0.4 0.1-0.8c0-0.4-0.3-0.7-0.7-1q-0.5-0.2-1-0.1-0.3 0.2-0.5 0.4c-0.3 0.2-0.5 0.5-0.5 0.9q0 0.5 0.5 0.7c0.3 0.1 0.7 0.1 1.1 0.1zm1.8 1.5c0-0.2 0-0.4 0-0.6-0.1-0.3-0.1-0.3-0.4-0.3-0.3 0.1-0.6 0.2-1 0.4q-0.6 0.3-1.3 0.7c-0.3 0.3-0.7 0.5-1 0.8-0.2 0.2-0.4 0.5-0.5 0.8q0 0.2 0.2 0.2 0.1 0 0.3 0 0.6 0 1.2-0.1 0.8-0.2 1.5-0.6c0.4-0.2 0.7-0.3 0.9-0.6q0.1-0.1 0.1-0.3 0-0.2 0-0.4zm-13.4 0c0 0.1 0.1 0.3 0 0.4 0 0.2 0.1 0.3 0.2 0.4 0.4 0.4 0.9 0.6 1.5 0.8q0.5 0.2 1 0.3 0.6 0.1 1.1 0.2 0.2 0 0.4-0.1 0.1 0 0.1-0.2 0-0.1-0.1-0.3-0.2-0.4-0.7-0.7c-0.7-0.6-1.5-1.1-2.4-1.4-0.2-0.2-0.5-0.2-0.8-0.2q-0.1 0-0.2 0.1c0 0.2-0.1 0.4-0.1 0.7zm-2.6-10.9c-0.1 0-0.1 0-0.2 0.1-0.2 0.5-0.2 1-0.3 1.5q0 0.4 0.1 0.9 0 0.3 0 0.6 0.1 0.4 0.2 0.8 0.1 0.4 0.2 0.9 0.1 0.5 0.3 1.1 0.1 0.5 0.3 0.9 0 0.1 0 0.1 0 0 0.1-0.1 0.3-0.5 0.6-0.9 0.4-0.6 1-1.2 0.4-0.4 0.8-0.8 0.4-0.3 0.9-0.7 0.1 0 0-0.1-0.3-0.3-0.6-0.6-0.5-0.6-1.1-1-0.4-0.4-0.9-0.7-0.4-0.4-1-0.6-0.2-0.1-0.4-0.2zm15.4 4c0 0.1 0.1 0.2 0.2 0.2 0.3 0.3 0.6 0.6 0.8 0.9q0.4 0.4 0.7 0.8 0.3 0.4 0.6 0.9c0 0 0 0.1 0 0.1 0.1 0 0.1-0.1 0.1-0.1q0.2-0.6 0.3-1.2 0.2-0.6 0.4-1.3 0.1-0.7 0.2-1.5 0.1-0.5 0.1-1 0-0.4 0-0.9-0.1 0-0.1 0 0-0.4-0.2-0.8c-0.1-0.1-0.1-0.1-0.2-0.1q-0.7 0.3-1.3 0.7-0.9 0.7-1.7 1.5-0.5 0.4-1 0.9 0 0.1 0.1 0.2 0.3 0.2 0.7 0.5c0.1 0.1 0.2 0.2 0.3 0.2zm-11.1 5.4q0.2 0 0.5 0 0.3-0.1 0.6-0.2 0.2 0 0.3-0.2 0.1-0.3 0-0.7c-0.1-0.3-0.3-0.6-0.6-0.8q-0.4-0.3-0.9-0.2c-0.5 0.1-1 0.5-1.1 1.1 0 0.2 0 0.5 0.1 0.7 0.1 0.1 0.2 0.2 0.4 0.3q0.3 0 0.7 0z"/>
	<path id="Layer" class="s1" d="m23.1 16.6c0-0.1 0-0.2 0-0.3q0-0.5-0.1-0.9 0-0.6-0.1-1.1-0.1-0.8-0.4-1.7-0.1-0.5-0.3-0.9c-0.2-0.5-0.4-0.9-0.6-1.4-0.1-0.1-0.1-0.3-0.1-0.5q0.3-0.9 0.6-1.8 0.2-0.8 0.4-1.6 0-0.1 0-0.1 0.5 0.6 0.8 1.4 0.5 1 0.9 2 0.2 0.9 0.4 1.8 0.2 1.3 0.2 2.6 0 1-0.2 2-0.4 2.6-1.7 4.8-1.3 2.2-3.4 3.8-1.2 0.8-2.5 1.4-0.8 0.3-1.6 0.5-0.9 0.2-1.8 0.3-1.1 0.2-2.2 0.1-1-0.1-1.9-0.4-1.2-0.3-2.4-0.8-2.7-1.4-4.5-3.9-0.9-1.3-1.6-2.7-0.3-0.9-0.5-1.8-0.3-0.9-0.4-1.9-0.2-1.3-0.1-2.7 0.1-1.2 0.4-2.3 0.6-2.2 1.8-4.1 0 0 0 0 0.1 0.5 0.2 0.9 0.1 0.6 0.3 1.2 0.2 0.8 0.5 1.5 0 0.1 0 0.2-0.3 0.7-0.6 1.4 0 0.2-0.1 0 0 0.1 0 0.1c0.1 0.1 0 0.2 0 0.3q-0.3 0.7-0.5 1.5-0.1 0.5-0.2 1-0.1 0.6-0.1 1.2-0.1 0.4-0.1 0.9 0 0.5 0.1 1.1 0.2 0.8 0.7 1.5c0.6 1 1.3 1.8 2.2 2.5q1.7 1.5 3.8 2.5 0.4 0.2 0.9 0.3 0.3 0.1 0.6 0.3 0.2 0 0.4 0.1 0.8 0.2 1.5 0.3 0.9 0.1 1.8-0.1 0.8-0.1 1.5-0.4 0.8-0.2 1.6-0.6 1-0.4 2-1.1 0.9-0.6 1.7-1.3 0.3-0.3 0.6-0.7 0.1 0 0.1 0 0 0 0-0.1 0.6-0.6 1-1.3 0.3-0.4 0.5-0.8 0.3-0.7 0.5-1.6 0-0.3 0-0.6z"/>
	<path id="Layer" class="s1" d="m18.3 2.4q-0.4 0.4-0.7 0.8-0.5 0.6-1 1.3c-0.1 0.1-0.1 0.1-0.2 0q-1-0.4-2.1-0.5-1.2-0.2-2.4-0.2-0.8 0.1-1.6 0.2-1 0.2-1.9 0.5-0.1 0.1-0.2 0-0.5-0.6-1-1.2-0.4-0.4-0.8-0.8 0 0 0-0.1 1.1-0.6 2.3-1 1-0.4 2-0.5 1.4-0.2 2.7-0.1 0.9 0.1 1.8 0.3 1.6 0.4 3.1 1.2 0 0.1 0 0.1z"/>
	<path id="Layer" fill-rule="evenodd" class="s2" d="m21 21q-0.3 0.4-0.6 0.7-0.8 0.7-1.7 1.3-1 0.7-2 1.1-0.8 0.4-1.6 0.6-0.7 0.3-1.5 0.4-0.9 0.2-1.8 0.1-0.7-0.1-1.5-0.3-0.2-0.1-0.4-0.1-0.3-0.2-0.6-0.3-0.5-0.1-0.9-0.3-2.1-1-3.8-2.5c-0.9-0.7-1.6-1.5-2.2-2.5q-0.5-0.7-0.7-1.5-0.1-0.6-0.1-1.1 0.4-0.1 0.8-0.1 0.8-0.1 1.6 0c1.5 0.2 2.6 1 3.6 2q0 0.1 0.1 0.2 0.1-0.3 0.2-0.6 0.3-0.6 0.6-1.1c0.2-0.3 0.3-0.5 0.5-0.8 0.6-0.6 1.2-1.1 2.1-1.4q0.6-0.2 1.2-0.2c0.9 0 1.7 0.2 2.4 0.7q0.7 0.4 1.2 1 0.2 0.2 0.3 0.4c0.2 0.5 0.5 0.9 0.6 1.4q0.1 0.3 0.2 0.5 0.2-0.2 0.5-0.4 0.8-0.8 1.9-1.3 0.8-0.3 1.7-0.4 0.8-0.1 1.5 0 0.3 0.1 0.5 0.1 0 0.3 0 0.6-0.2 0.9-0.5 1.6-0.2 0.4-0.5 0.8-0.4 0.7-1 1.3 0 0.1 0 0.1c0-0.1 0-0.1 0-0.1 0 0-0.1 0-0.1 0.1q0 0 0 0 0 0 0 0zm0 0q0 0 0 0 0 0 0 0zm-0.3 0.3zm0.1-0.1zm-0.2 0.2q0 0 0 0 0 0 0 0 0 0 0 0 0 0 0 0zm-6.7 3.6h-0.1q0.1 0 0.1 0zm-0.3 0q0.1 0 0.2 0c-0.1 0-0.1 0-0.2 0zm1.9-4.7q-0.4 0-0.9 0 0 0 0 0.1-0.1 0.1-0.2 0-0.3 0-0.7 0c-0.1 0-0.2 0.1-0.3 0-0.1 0-0.1-0.2-0.2-0.3q0-0.1-0.1-0.1-0.1 0.1-0.1 0 0-0.4 0-0.8 0 0 0-0.1 0.3-0.1 0.6-0.3 0.5-0.3 0.6-0.9c0-0.3 0-0.6 0-0.8 0-0.4-0.3-0.7-0.6-0.7q-1 0-1.9 0c-0.4 0-0.6 0.2-0.6 0.6q0 0.3 0 0.5c-0.1 0.4 0.1 0.7 0.3 0.9 0.3 0.4 0.7 0.6 1.1 0.7 0 0 0.1 0 0.1 0.1q-0.1 0.4 0 0.8 0 0-0.1 0c-0.1 0-0.1 0.1-0.2 0.1q-0.1 0.2-0.1 0.3-0.1 0-0.1 0-0.6 0-1.2 0-0.1 0-0.1 0 0-0.1-0.1-0.1-0.4 0-0.8 0c0 0 0 0-0.1 0q0 0.1 0.1 0.1 0 0.1 0.1 0.2 0.1 0 0.1 0.2 0 0.1 0.1 0.3 0 0.1 0.1 0.1c0.1 0 0.1 0 0.1 0.1q0.1 0.2 0.2 0.4 0 0.3 0.2 0.5c0.1-0.1 0.1-0.3 0.1-0.5q0-0.5 0-0.9 0.1 0 0.2 0 0.6 0.1 1.3 0.1 1 0.1 2-0.1 0.1-0.1 0.1 0 0 0.5 0 1c0 0.2 0.1 0.3 0.1 0.4q0.2-0.4 0.4-0.8c0-0.2 0-0.2 0.2-0.2q0.1 0 0.1 0 0.1-0.5 0.2-0.9zm-2.9 0.9q-0.5 0-0.9 0c-0.2 0-0.2 0-0.2 0.1q0.1 0.1 0.1 0.1 0.1 0.1 0.3 0.2 0.1 0 0.1-0.1c0-0.2 0.1-0.1 0.2-0.1q0.1 0 0.1 0 0.1 0.2 0.2 0.3c0.1 0.1 0.2 0.1 0.3 0q0.1-0.1 0.1-0.1c0.2-0.2 0.2-0.2 0.4-0.1q0 0.1 0 0.1c0.2-0.1 0.3-0.2 0.3-0.3q0-0.1-0.1-0.1-0.5 0-0.9 0zm8.4-0.2q0 0 0 0 0 0 0 0 0 0 0 0-0.1 0.1-0.1 0.1 0 0 0 0 0 0 0 0 0 0 0 0 0 0 0 0 0 0 0 0 0 0 0.1-0.1zm-0.2 0.2q0.1 0 0 0 0 0 0 0 0 0 0 0 0 0 0 0zm-0.1 0.1q0 0 0 0 0-0.1 0 0 0 0 0 0 0 0 0 0zm-0.1 0.1z"/>
	<path id="Layer" class="s3" d="m3.1 1.7q0.2 0.1 0.4 0.2 0.6 0.2 1 0.6 0.5 0.3 0.9 0.7 0.6 0.4 1.1 1 0.3 0.3 0.6 0.6 0.1 0.1 0 0.1-0.5 0.4-0.9 0.7-0.4 0.4-0.8 0.8-0.6 0.6-1 1.2-0.3 0.4-0.6 0.9-0.1 0.1-0.1 0.1 0 0 0-0.1-0.2-0.4-0.3-0.9-0.2-0.6-0.3-1.1-0.1-0.5-0.2-0.9-0.1-0.4-0.2-0.8 0-0.3 0-0.6-0.1-0.5-0.1-0.9c0.1-0.5 0.1-1 0.3-1.5 0.1-0.1 0.1-0.1 0.2-0.1z"/>
	<path id="Layer" class="s4" d="m21.9 2.6q0 0.5 0 0.9 0 0.5-0.1 1-0.1 0.8-0.2 1.5-0.2 0.7-0.4 1.3-0.1 0.6-0.3 1.2c0 0 0 0.1-0.1 0.1 0 0 0-0.1 0-0.1q-0.3-0.5-0.6-0.9-0.3-0.4-0.7-0.8c-0.2-0.3-0.5-0.6-0.8-0.9-0.1 0-0.2-0.1-0.2-0.2q0 0 0 0 0.2-0.4 0.5-0.8 0.3-0.6 0.7-1.1 0.5-0.5 1.1-0.9 0.5-0.2 1.1-0.3z"/>
	<path id="Layer" class="s5" d="m5.7 12.6c0-0.3 0.1-0.5 0.1-0.7q0.1-0.1 0.2-0.1c0.3 0 0.6 0 0.8 0.2 0.9 0.3 1.7 0.8 2.4 1.4q0.5 0.3 0.7 0.7 0.1 0.2 0.1 0.3 0 0.2-0.1 0.2-0.2 0.1-0.4 0.1-0.5-0.1-1.1-0.2-0.5-0.1-1-0.3c-0.6-0.2-1.1-0.4-1.5-0.8-0.1-0.1-0.2-0.2-0.2-0.4 0.1-0.1 0-0.3 0-0.4z"/>
	<path id="Layer" class="s6" d="m19.1 12.6q0 0.2 0 0.4 0 0.2-0.1 0.3c-0.2 0.3-0.5 0.4-0.9 0.6q-0.7 0.4-1.5 0.6-0.6 0.1-1.2 0.1-0.2 0-0.3 0-0.2 0-0.2-0.2c0.1-0.3 0.3-0.6 0.5-0.8 0.3-0.3 0.7-0.5 1-0.8q0.7-0.4 1.3-0.7c0.4-0.2 0.7-0.3 1-0.4 0.3 0 0.3 0 0.4 0.3 0 0.2 0 0.4 0 0.6z"/>
	<path id="Layer" class="s7" d="m21.9 2.6q-0.6 0.1-1.1 0.3-0.6 0.4-1.1 0.9-0.4 0.5-0.7 1.1-0.3 0.4-0.5 0.8 0 0 0 0c-0.1 0-0.2-0.1-0.3-0.2q-0.4-0.3-0.7-0.5-0.1-0.1-0.1-0.2 0.5-0.5 1-0.9 0.8-0.8 1.7-1.5 0.6-0.4 1.3-0.7c0.1 0 0.1 0 0.2 0.1q0.2 0.4 0.2 0.8 0 0 0.1 0z"/>
	<path id="Layer" class="s2" d="m17.3 11.1c-0.4 0-0.8 0-1.1-0.1q-0.5-0.2-0.5-0.7c0-0.4 0.2-0.7 0.5-0.9q0.2-0.2 0.5-0.4 0.5-0.1 1 0.1c0.4 0.3 0.7 0.6 0.7 1q0.1 0.4-0.1 0.8c-0.1 0.1-0.3 0.2-0.5 0.2-0.2 0-0.3 0-0.5 0z"/>
	<path id="Layer" class="s2" d="m7.4 11.1q-0.4 0-0.7 0c-0.2-0.1-0.3-0.2-0.4-0.3-0.1-0.2-0.1-0.5-0.1-0.7 0.1-0.6 0.6-1 1.1-1.1q0.5-0.1 0.9 0.2c0.3 0.2 0.5 0.5 0.6 0.8q0.1 0.4 0 0.7-0.1 0.2-0.3 0.2-0.3 0.1-0.6 0.2-0.3 0-0.5 0z"/>
	<path id="Layer" class="s8" d="m21 21c0-0.1 0.1-0.1 0.1-0.1 0 0 0 0 0 0.1q0 0 0 0 0 0-0.1 0z"/>
	<path id="Layer" class="s2" d="m21 21q0.1 0 0.1 0 0 0-0.1 0 0 0 0 0 0 0 0 0z"/>
	<path id="Layer" class="s9" d="m15.5 20.3q-0.1 0.4-0.2 0.9 0 0-0.1 0c-0.2 0-0.2 0-0.2 0.2q-0.2 0.4-0.3 0.8c-0.1-0.1-0.2-0.2-0.2-0.4q0-0.5 0-0.9 0-0.1-0.1-0.1-1 0.2-2 0.1-0.7 0-1.3-0.1-0.1 0-0.2 0 0 0.5 0 0.9c0 0.2 0 0.4-0.1 0.5q-0.2-0.2-0.2-0.5-0.1-0.2-0.1-0.4c-0.1-0.1-0.1-0.1-0.2-0.1q-0.1 0-0.1-0.1-0.1-0.2-0.1-0.3 0-0.2-0.1-0.2-0.1-0.1-0.1-0.2-0.1 0 0-0.1c0 0 0 0 0 0q0.4 0 0.8 0 0.1 0 0.1 0.1 0 0 0.1 0 0.6 0.1 1.2 0 0.1 0 0.1 0 0.1-0.1 0.1-0.2c0.1-0.1 0.1-0.2 0.2-0.2q0.1 0 0.1 0 0-0.4 0-0.8c0 0-0.1-0.1-0.1-0.1-0.4-0.1-0.8-0.3-1.1-0.6-0.2-0.3-0.4-0.6-0.3-1q0-0.2 0-0.5c0-0.4 0.2-0.6 0.6-0.6q0.9 0 1.9 0c0.3 0 0.6 0.3 0.6 0.7 0 0.2 0 0.5 0 0.8q-0.1 0.6-0.6 0.9-0.3 0.2-0.6 0.3 0 0.1 0 0.1 0 0.4 0 0.8 0 0.1 0.1 0 0.1 0 0.1 0.1c0.1 0.1 0.1 0.3 0.2 0.3 0.1 0.1 0.2 0 0.3 0q0.4 0 0.7 0 0.1 0.1 0.2 0 0-0.1 0-0.1 0.5 0 0.9 0z"/>
	<path id="Layer" class="s10" d="m12.6 21.2q0.4 0 0.9 0 0.1 0 0.1 0.1c0 0.1-0.1 0.2-0.3 0.3q0 0 0-0.1c-0.2-0.1-0.2-0.1-0.4 0.1q0 0-0.1 0.1c-0.1 0.1-0.2 0.1-0.3 0q-0.1-0.1-0.2-0.3 0 0-0.1 0c-0.1 0-0.1 0-0.2 0.1q0 0.1-0.1 0.1-0.2-0.1-0.3-0.2 0 0 0-0.1c-0.1-0.1-0.1-0.1 0.1-0.1q0.4 0 0.9 0z"/>
	<path id="Layer" class="s8" d="m13.6 25c0.1 0 0.1 0 0.2 0q-0.1 0.1-0.2 0z"/>
	<path id="Layer" class="s8" d="m13.9 25q0 0-0.1 0z"/>
	<path id="Layer" class="s8" d="m21 21q0 0 0 0 0 0 0 0 0 0 0 0z"/>
	<path id="Layer" class="s8" d="m20.9 21.1q0 0 0 0 0 0 0 0z"/>
	<path id="Layer" class="s11" d="m20.9 21.1q0 0 0 0 0 0 0 0 0 0 0 0z"/>
	<path id="Layer" class="s11" d="m20.6 21.4q0 0 0 0 0 0 0 0 0 0 0 0 0 0 0 0z"/>
	<path id="Layer" class="s8" d="m21 21.1q0-0.1 0-0.1 0 0 0 0 0 0 0 0.1z"/>
	<path id="Layer" class="s8" d="m20.9 21.1q0.1 0 0.1-0.1 0 0.1 0 0.1 0 0-0.1 0z"/>
	<path id="Layer" class="s11" d="m20.8 21.2q0 0 0 0 0.1 0 0 0z"/>
	<path id="Layer" class="s11" d="m20.8 21.2q0 0 0 0 0 0 0 0 0 0 0 0z"/>
	<path id="Layer" class="s11" d="m20.8 21.2z"/>
	<path id="Layer" class="s11" d="m20.7 21.3q0 0 0.1 0 0 0-0.1 0z"/>
	<path id="Layer" class="s11" d="m20.7 21.3q0 0 0 0 0 0 0 0 0 0 0 0z"/>
	<path id="Layer" class="s11" d="m20.7 21.3z"/>
	<path id="Layer" class="s11" d="m20.6 21.4z"/>
</svg>