<svg width="51" height="52" viewBox="0 0 51 52" fill="none" xmlns="http://www.w3.org/2000/svg">
<g clip-path="url(#clip0_24_107)">
<path d="M38.5214 7.21908L22.7035 1.19025C22.144 0.976792 21.5502 0.867105 20.9512 0.866577C20.3516 0.866859 19.7571 0.97655 19.1969 1.19025L3.377 7.21908C2.66795 7.48927 2.05775 7.96819 1.62715 8.59245C1.19655 9.2167 0.965859 9.95686 0.965608 10.715V30.9442C0.965041 31.7029 1.19535 32.444 1.626 33.069C2.05665 33.6941 2.66731 34.1736 3.377 34.4441L19.1949 40.4689C19.7555 40.6842 20.3507 40.7952 20.9512 40.7966C21.5508 40.7963 22.1454 40.6866 22.7055 40.4729L38.5214 34.4441C39.2319 34.1743 39.8434 33.695 40.2748 33.0699C40.7062 32.4448 40.9371 31.7034 40.9368 30.9442V10.715C40.9363 9.95639 40.705 9.21588 40.2737 8.59157C39.8423 7.96727 39.2312 7.48863 38.5214 7.21908Z" fill="#03CFCD"/>
<path d="M48.0136 17.5001L32.1957 11.4713C31.6361 11.2578 31.0423 11.1481 30.4434 11.1476C29.8438 11.1479 29.2493 11.2576 28.6891 11.4713L12.8692 17.5001C12.1601 17.7703 11.5499 18.2492 11.1193 18.8735C10.6887 19.4977 10.458 20.2379 10.4578 20.996V41.2252C10.4572 41.984 10.6875 42.725 11.1182 43.3501C11.5488 43.9751 12.1595 44.4546 12.8692 44.7251L28.6871 50.7499C29.2476 50.9652 29.8428 51.0763 30.4434 51.0776C31.043 51.0773 31.6375 50.9676 32.1977 50.7539L48.0136 44.7251C48.724 44.4553 49.3355 43.976 49.767 43.3509C50.1984 42.7258 50.4293 41.9844 50.429 41.2252V20.996C50.4284 20.2374 50.1972 19.4969 49.7658 18.8726C49.3344 18.2483 48.7234 17.7696 48.0136 17.5001Z" fill="#303FD0"/>
<path d="M19.1949 40.4699L10.4578 37.1394V20.996C10.4583 20.2379 10.6891 19.4979 11.1197 18.8737C11.5502 18.2495 12.1603 17.7705 12.8692 17.5001L28.6871 11.4702C29.817 11.04 31.0658 11.04 32.1957 11.4702L40.9328 14.7977V30.9411C40.9329 31.7001 40.7021 32.4412 40.2709 33.0661C39.8397 33.691 39.2285 34.1702 38.5184 34.4401L22.7035 40.4699C21.5736 40.9001 20.3248 40.9001 19.1949 40.4699Z" fill="#50D0FE"/>
<path d="M18.1063 6.77266L10.6991 14.1722C10.3545 14.5162 10.1197 14.9546 10.0246 15.4319C9.92942 15.9093 9.97812 16.4041 10.1645 16.8538C10.3512 17.3039 10.6676 17.6884 11.0735 17.9586C11.4794 18.2287 11.9565 18.3723 12.4442 18.371L15.7145 18.3725L15.7145 26.8643C15.7147 27.5168 15.9743 28.1425 16.4362 28.6039C16.8981 29.0653 17.5244 29.3246 18.1776 29.3248L20.6407 29.3255C21.2942 29.3255 21.9208 29.0662 22.3829 28.6046C22.8449 28.1431 23.1045 27.517 23.1045 26.8643L23.1038 18.3732H26.3785C26.8658 18.3731 27.3421 18.2288 27.7473 17.9583C28.1524 17.6879 28.4682 17.3035 28.6547 16.8538C28.8412 16.404 28.89 15.9091 28.7949 15.4317C28.6999 14.9542 28.4652 14.5157 28.1207 14.1715L20.7171 6.77552C20.371 6.42977 19.9017 6.23529 19.4123 6.23476C18.9228 6.23422 18.4531 6.42767 18.1063 6.77266ZM31.2733 44.9552L38.6747 37.5614C39.0193 37.2172 39.2539 36.7786 39.349 36.3012C39.444 35.8237 39.3952 35.3288 39.2087 34.8791C39.0222 34.4294 38.7065 34.045 38.3013 33.7745C37.8961 33.5041 37.4198 33.3597 36.9325 33.3597L33.6564 33.3568L33.6557 24.8657C33.6557 24.213 33.3961 23.5869 32.9341 23.1254C32.472 22.6638 31.8453 22.4045 31.1919 22.4045L28.7302 22.4052C28.0768 22.4052 27.4501 22.6645 26.9881 23.1261C26.526 23.5877 26.2664 24.2137 26.2664 24.8664L26.2664 33.3568L22.9925 33.3576C22.5052 33.3576 22.0288 33.5019 21.6237 33.7724C21.2185 34.0428 20.9027 34.4272 20.7162 34.877C20.5298 35.3267 20.481 35.8216 20.576 36.299C20.6711 36.7765 20.9057 37.215 21.2503 37.5593L28.6538 44.9552C29.0004 45.3014 29.4705 45.496 29.9607 45.496C30.4509 45.496 30.921 45.3014 31.2675 44.9552L31.2733 44.9552Z" fill="white"/>
</g>
<defs>
<clipPath id="clip0_24_107">
<rect width="49.4594" height="50.2069" fill="white" transform="translate(0.965607 0.866577)"/>
</clipPath>
</defs>
</svg>
