<svg width="24" height="24" viewBox="0 0 24 24" fill="none" xmlns="http://www.w3.org/2000/svg">
<g clip-path="url(#clip0_286_1035)">
<mask id="mask0_286_1035" style="mask-type:luminance" maskUnits="userSpaceOnUse" x="0" y="0" width="24" height="24">
<path d="M24 0H0V24H24V0Z" fill="white"/>
</mask>
<g mask="url(#mask0_286_1035)">
<path d="M12.0019 3.69141C9.58584 3.69141 7.16895 3.91502 4.75529 4.3623C3.90656 4.5196 3.21558 5.15141 2.99747 5.99414C1.96438 9.98973 1.96438 14.0103 2.99747 18.0059C3.21558 18.8486 3.90656 19.4804 4.75529 19.6377C4.92082 19.6684 5.08631 19.6897 5.25187 19.7183V20.25C5.25046 20.3494 5.26882 20.4481 5.30588 20.5403C5.34294 20.6325 5.39796 20.7164 5.46775 20.7872C5.53753 20.858 5.62069 20.9142 5.71238 20.9526C5.80407 20.9909 5.90247 21.0107 6.00187 21.0107C6.10126 21.0107 6.19967 20.9909 6.29136 20.9526C6.38305 20.9142 6.46621 20.858 6.53599 20.7872C6.60577 20.7164 6.66079 20.6325 6.69785 20.5403C6.73491 20.4481 6.75327 20.3494 6.75187 20.25V19.9526C10.2506 20.422 13.7535 20.422 17.2519 19.9526V20.25C17.2505 20.3494 17.2688 20.4481 17.3059 20.5403C17.3429 20.6325 17.398 20.7164 17.4678 20.7872C17.5375 20.858 17.6207 20.9142 17.7124 20.9526C17.8041 20.9909 17.9025 21.0107 18.0019 21.0107C18.1013 21.0107 18.1997 20.9909 18.2914 20.9526C18.3831 20.9142 18.4662 20.858 18.536 20.7872C18.6058 20.7164 18.6608 20.6325 18.6979 20.5403C18.7349 20.4481 18.7533 20.3494 18.7519 20.25V19.7183C18.9174 19.6897 19.0829 19.6684 19.2485 19.6377C20.0972 19.4804 20.7882 18.8486 21.0063 18.0059C22.0394 14.0103 22.0394 9.98973 21.0063 5.99414C20.7882 5.15141 20.0972 4.5196 19.2485 4.3623C16.8344 3.91502 14.4179 3.69141 12.0019 3.69141ZM12.0019 5.19141C14.3253 5.19141 16.6486 5.40643 18.9745 5.8374C19.2508 5.8886 19.4847 6.10634 19.5531 6.37061C19.7085 6.97133 19.8298 7.5712 19.9355 8.1709H18.4325C18.3331 8.16949 18.2345 8.18785 18.1423 8.22491C18.05 8.26197 17.9661 8.317 17.8953 8.38678C17.8245 8.45656 17.7683 8.53972 17.73 8.63141C17.6916 8.7231 17.6719 8.8215 17.6719 8.9209C17.6719 9.02029 17.6916 9.11869 17.73 9.21039C17.7683 9.30208 17.8245 9.38524 17.8953 9.45502C17.9661 9.5248 18.05 9.57982 18.1423 9.61688C18.2345 9.65394 18.3331 9.6723 18.4325 9.6709H20.1464C20.3131 11.2241 20.3131 12.7759 20.1464 14.3291H18.4325C18.3331 14.3277 18.2345 14.3461 18.1423 14.3831C18.05 14.4202 17.9661 14.4752 17.8953 14.545C17.8245 14.6148 17.7683 14.6979 17.73 14.7896C17.6916 14.8813 17.6719 14.9797 17.6719 15.0791C17.6719 15.1785 17.6916 15.2769 17.73 15.3686C17.7683 15.4603 17.8245 15.5434 17.8953 15.6132C17.9661 15.683 18.05 15.738 18.1423 15.7751C18.2345 15.8121 18.3331 15.8305 18.4325 15.8291H19.9355C19.8298 16.4288 19.7085 17.0287 19.5531 17.6294C19.4847 17.8937 19.2508 18.1114 18.9745 18.1626C14.3234 19.0245 9.68116 19.0245 5.02921 18.1626C4.75294 18.1114 4.51899 17.8937 4.4506 17.6294C3.47819 13.8685 3.47819 10.1315 4.4506 6.37061C4.51899 6.10634 4.75294 5.88861 5.02921 5.8374C7.3548 5.40644 9.67846 5.19141 12.0019 5.19141Z" fill="white"/>
<path d="M11.2428 8.75021C11.045 8.75489 10.857 8.83755 10.7198 8.98019L10.027 9.67306C9.65403 9.47994 9.23629 9.3464 8.76135 9.3464C8.28614 9.3464 7.87026 9.48121 7.49718 9.67453L6.80285 8.98019C6.73296 8.90835 6.64937 8.85124 6.55704 8.81224C6.4647 8.77324 6.36548 8.75315 6.26525 8.75314C6.11605 8.75318 5.97025 8.79771 5.84649 8.88105C5.72274 8.96438 5.62665 9.08273 5.5705 9.22097C5.51436 9.3592 5.50072 9.51104 5.53132 9.65707C5.56192 9.80309 5.63538 9.93668 5.7423 10.0408L6.53625 10.8347C6.35254 11.2166 6.10851 11.5854 6.10851 11.9993C6.10851 12.4131 6.35254 12.7819 6.53625 13.1638L5.7423 13.9578C5.67032 14.0269 5.61286 14.1096 5.57327 14.2012C5.53368 14.2928 5.51277 14.3914 5.51176 14.4912C5.51074 14.591 5.52965 14.6899 5.56736 14.7823C5.60508 14.8747 5.66085 14.9586 5.73141 15.0292C5.80197 15.0998 5.8859 15.1555 5.97828 15.1932C6.07066 15.231 6.16964 15.2499 6.26942 15.2489C6.3692 15.2478 6.46777 15.2269 6.55937 15.1873C6.65096 15.1478 6.73374 15.0903 6.80285 15.0183L7.49718 14.3254C7.87009 14.5185 8.28647 14.6521 8.76135 14.6521C9.23629 14.6521 9.65403 14.5186 10.027 14.3254L10.7198 15.0183C10.7889 15.0903 10.8717 15.1478 10.9633 15.1873C11.0549 15.2269 11.1535 15.2478 11.2533 15.2489C11.3531 15.2499 11.452 15.231 11.5444 15.1932C11.6368 15.1555 11.7207 15.0998 11.7913 15.0292C11.8618 14.9586 11.9176 14.8747 11.9553 14.7823C11.993 14.69 12.012 14.591 12.0109 14.4912C12.0099 14.3914 11.989 14.2928 11.9494 14.2012C11.9098 14.1096 11.8524 14.0269 11.7804 13.9578L10.9864 13.1638C11.1702 12.7819 11.4156 12.4132 11.4156 11.9993C11.4156 11.5853 11.1702 11.2167 10.9864 10.8347L11.7804 10.0408C11.8893 9.936 11.9641 9.8008 11.9948 9.65286C12.0256 9.50492 12.011 9.35113 11.9529 9.21164C11.8948 9.07215 11.7959 8.95347 11.6692 8.87113C11.5425 8.78879 11.3939 8.74665 11.2428 8.75021ZM8.76135 10.8464C9.20834 10.8464 9.44874 10.9869 9.62853 11.1892C9.80833 11.3915 9.91564 11.6901 9.91564 11.9993C9.91564 12.3085 9.80833 12.6071 9.62853 12.8093C9.44874 13.0116 9.20834 13.1521 8.76135 13.1521C8.31435 13.1521 8.07395 13.0116 7.89416 12.8093C7.71436 12.6071 7.60851 12.3085 7.60851 11.9993C7.60851 11.7186 7.71709 11.463 7.86779 11.2639C7.91236 11.2309 7.95314 11.1931 7.98937 11.1511C8.16281 10.984 8.3635 10.8464 8.76135 10.8464Z" fill="#03F5AE"/>
</g>
</g>
<defs>
<clipPath id="clip0_286_1035">
<rect width="24" height="24" fill="white"/>
</clipPath>
</defs>
</svg>
